<svg width="1280" height="460" xmlns="http://www.w3.org/2000/svg"><title>x</title><g fill="none" fill-rule="evenodd"><path d="M29.485 0h1221.03c10.253 0 13.97 1.067 17.719 3.072 3.748 2.005 6.69 4.946 8.694 8.694 2.005 3.748 3.072 7.466 3.072 17.719v401.03c0 10.253-1.067 13.97-3.072 17.719-2.005 3.748-4.946 6.69-8.694 8.694-3.748 2.005-7.466 3.072-17.719 3.072H29.485c-10.253 0-13.97-1.067-17.719-3.072-3.748-2.005-6.69-4.946-8.694-8.694C1.067 444.486 0 440.768 0 430.515V29.485c0-10.253 1.067-13.97 3.072-17.719 2.005-3.748 4.946-6.69 8.694-8.694C15.514 1.067 19.232 0 29.485 0Z" fill="#000"/><path d="m345.465 213.102 3.2 4.898h2.308l-4.383-6.445 4.348-6.27h-2.239l-3.152 4.817h-.164l-3.164-4.817h-2.356l4.395 6.352-4.36 6.363h2.204l3.21-4.898zm20.085-3.856c-.327-2.613-2.25-4.207-5.062-4.207-3.457 0-5.472 2.121-5.472 5.766v1.664c0 3.644 2.015 5.765 5.472 5.765 2.813 0 4.746-1.582 5.063-4.172h-1.969c-.246 1.454-1.488 2.38-3.129 2.38-2.215 0-3.445-1.5-3.445-4.231v-1.149c0-2.73 1.23-4.242 3.445-4.242 1.64 0 2.883.938 3.13 2.426h1.968Zm9.54 8.988c3.363 0 5.508-2.191 5.508-5.625v-1.922c0-3.433-2.145-5.625-5.508-5.625s-5.508 2.192-5.508 5.625v1.922c0 3.434 2.145 5.625 5.508 5.625Zm0-11.414c2.18 0 3.539 1.547 3.539 4.043v1.559c0 2.508-1.36 4.043-3.54 4.043-2.179 0-3.538-1.535-3.538-4.043v-1.559c0-2.496 1.36-4.043 3.539-4.043Zm14.039 11.39c1.816 0 3.152-.75 3.809-2.155h.222V218h1.957v-17.707h-2.027v6.96h-.211c-.55-1.394-1.91-2.179-3.75-2.179-2.941 0-4.863 2.121-4.863 5.38v2.366c0 3.27 1.922 5.39 4.863 5.39Zm.586-1.816c-2.098 0-3.445-1.511-3.445-3.855v-1.828c0-2.344 1.347-3.844 3.445-3.844 2.086 0 3.433 1.5 3.433 3.844v1.828c0 2.355-1.347 3.855-3.433 3.855Zm18.48-1.675c-.351 1.113-1.535 1.793-3.14 1.793-2.168 0-3.551-1.5-3.551-3.832v-.516h8.66v-1.242c0-3.68-1.945-5.871-5.25-5.871-3.234 0-5.379 2.203-5.379 5.554v1.91c0 3.622 2.028 5.72 5.52 5.72 2.672 0 4.687-1.419 5.074-3.516h-1.934Zm-3.293-7.957c2.051 0 3.293 1.465 3.293 3.89h-6.691c0-2.437 1.277-3.89 3.398-3.89Zm15.493 11.448c2.941 0 4.863-2.12 4.863-5.39v-2.367c0-3.258-1.922-5.379-4.863-5.379-1.84 0-3.188.785-3.75 2.18h-.211v-6.961h-2.028V218h1.957v-1.945h.223c.656 1.406 1.992 2.156 3.809 2.156Zm-.586-1.816c-2.086 0-3.422-1.5-3.422-3.855v-1.828c0-2.344 1.336-3.844 3.422-3.844 2.109 0 3.445 1.5 3.445 3.844v1.828c0 2.344-1.336 3.855-3.445 3.855Zm19.828-11.109h-1.992v7.488c0 2.168-1.407 3.633-3.504 3.633-1.98 0-2.918-1.078-2.918-3.375v-7.746h-1.992v8.25c0 3.047 1.5 4.7 4.265 4.7 1.934 0 3.387-.891 4.067-2.473h.164V218h1.91v-12.715Zm9.855-3.117c.938 0 1.653-.703 1.653-1.64 0-.926-.715-1.63-1.653-1.63-.937 0-1.652.704-1.652 1.63 0 .937.715 1.64 1.652 1.64ZM454.824 218v-1.652h-4.207v-11.063h-6.293v1.652h4.324v9.41h-4.359V218h10.535Zm14.836 0v-1.652h-4.195v-16.055h-6.305v1.652h4.313v14.403h-4.348V218zm8.485.21c1.816 0 3.152-.75 3.808-2.155h.223V218h1.957v-17.707h-2.027v6.96h-.211c-.551-1.394-1.91-2.179-3.75-2.179-2.942 0-4.864 2.121-4.864 5.38v2.366c0 3.27 1.922 5.39 4.864 5.39Zm.586-1.816c-2.098 0-3.446-1.511-3.446-3.855v-1.828c0-2.344 1.348-3.844 3.446-3.844 2.085 0 3.433 1.5 3.433 3.844v1.828c0 2.355-1.348 3.855-3.433 3.855Zm35.179-7.148c-.328-2.613-2.25-4.207-5.062-4.207-3.457 0-5.473 2.121-5.473 5.766v1.664c0 3.644 2.016 5.765 5.473 5.765 2.812 0 4.746-1.582 5.062-4.172h-1.969c-.246 1.454-1.488 2.38-3.128 2.38-2.215 0-3.446-1.5-3.446-4.231v-1.149c0-2.73 1.23-4.242 3.446-4.242 1.64 0 2.882.938 3.128 2.426h1.97ZM529.004 218v-1.652h-4.195v-16.055h-6.305v1.652h4.312v14.403h-4.347V218zm12.715-3.281c-.352 1.113-1.535 1.793-3.14 1.793-2.169 0-3.552-1.5-3.552-3.832v-.516h8.66v-1.242c0-3.68-1.945-5.871-5.25-5.871-3.234 0-5.378 2.203-5.378 5.554v1.91c0 3.622 2.027 5.72 5.52 5.72 2.671 0 4.687-1.419 5.073-3.516h-1.933Zm-3.293-7.957c2.05 0 3.293 1.465 3.293 3.89h-6.692c0-2.437 1.278-3.89 3.399-3.89Zm13.406 11.461c1.852 0 3.234-.762 3.844-2.121h.199v1.91h1.898v-8.707c0-2.649-1.71-4.172-4.699-4.172-2.601 0-4.57 1.394-4.804 3.433h1.957c.328-1.09 1.359-1.71 2.824-1.71 1.77 0 2.742.878 2.742 2.472v1.149l-3.492.175c-2.895.153-4.512 1.489-4.512 3.739 0 2.308 1.617 3.832 4.043 3.832Zm.574-1.746c-1.605 0-2.601-.82-2.601-2.157 0-1.324.937-2.086 2.718-2.168l3.27-.152v1.5c0 1.7-1.465 2.977-3.387 2.977ZM562.754 218h1.992v-7.488c0-2.168 1.406-3.633 3.504-3.633 1.98 0 2.918 1.078 2.918 3.375V218h1.992v-8.25c0-3.047-1.5-4.7-4.265-4.7-1.934 0-3.387.891-4.067 2.473h-.164v-2.238h-1.91V218Zm35.672.21c2.941 0 4.863-2.12 4.863-5.39v-2.367c0-3.258-1.922-5.379-4.863-5.379-1.84 0-3.188.785-3.75 2.18h-.211v-6.961h-2.027V218h1.957v-1.945h.222c.656 1.406 1.992 2.156 3.809 2.156Zm-.586-1.816c-2.086 0-3.422-1.5-3.422-3.855v-1.828c0-2.344 1.336-3.844 3.422-3.844 2.11 0 3.445 1.5 3.445 3.844v1.828c0 2.344-1.336 3.855-3.445 3.855Zm19.828-11.109h-1.992v7.488c0 2.168-1.406 3.633-3.504 3.633-1.98 0-2.918-1.078-2.918-3.375v-7.746h-1.992v8.25c0 3.047 1.5 4.7 4.265 4.7 1.934 0 3.387-.891 4.067-2.473h.164V218h1.91v-12.715Zm9.855-3.117c.938 0 1.653-.703 1.653-1.64 0-.926-.715-1.63-1.653-1.63-.937 0-1.652.704-1.652 1.63 0 .937.715 1.64 1.652 1.64ZM632.856 218v-1.652h-4.208v-11.063h-6.292v1.652h4.324v9.41h-4.36V218h10.536Zm14.835 0v-1.652h-4.195v-16.055h-6.305v1.652h4.313v14.403h-4.348V218zm8.485.21c1.816 0 3.152-.75 3.808-2.155h.223V218h1.957v-17.707h-2.027v6.96h-.211c-.551-1.394-1.91-2.179-3.75-2.179-2.942 0-4.863 2.121-4.863 5.38v2.366c0 3.27 1.921 5.39 4.863 5.39Zm.586-1.816c-2.098 0-3.446-1.511-3.446-3.855v-1.828c0-2.344 1.348-3.844 3.446-3.844 2.086 0 3.433 1.5 3.433 3.844v1.828c0 2.355-1.347 3.855-3.433 3.855Zm36.082-4.968v-1.852h-12.399v1.852zm9.433-6.352c-1.816 0-3.14.75-3.808 2.156h-.211v-1.945h-1.969v17.004h2.027v-6.258h.223c.55 1.395 1.899 2.18 3.738 2.18 2.942 0 4.864-2.121 4.864-5.379v-2.367c0-3.27-1.922-5.39-4.864-5.39Zm-.574 1.828c2.098 0 3.434 1.5 3.434 3.844v1.828c0 2.344-1.336 3.856-3.434 3.856-2.097 0-3.433-1.5-3.433-3.856v-1.828c0-2.344 1.336-3.844 3.433-3.844Zm14.11 5.403c0-3.235 1.664-5.18 4.476-5.18.692 0 1.512.14 2.098.352v-2.239c-.422-.176-1.114-.281-1.84-.281-2.45 0-4.031 1.219-4.5 3.574h-.258v-3.246h-4.746v1.594h2.824v9.527h-2.566V218h8.449v-1.594h-3.937v-4.101Zm15.339 5.929c3.364 0 5.508-2.191 5.508-5.625v-1.922c0-3.433-2.144-5.625-5.508-5.625-3.363 0-5.507 2.192-5.507 5.625v1.922c0 3.434 2.144 5.625 5.507 5.625Zm0-11.414c2.18 0 3.54 1.547 3.54 4.043v1.559c0 2.508-1.36 4.043-3.54 4.043-2.18 0-3.539-1.535-3.539-4.043v-1.559c0-2.496 1.36-4.043 3.54-4.043Zm16.512-4.652c.938 0 1.652-.703 1.652-1.64 0-.926-.714-1.63-1.652-1.63-.937 0-1.652.704-1.652 1.63 0 .937.715 1.64 1.652 1.64Zm1.149 3.117h-7.77v1.652h5.813v10.758c0 1.817-.715 2.38-3.083 2.38-.773 0-2.414-.036-3.023-.095v1.782c.844.07 2.203.093 3.082.093 3.54 0 4.98-1.113 4.98-3.925v-12.645Zm15.445 9.434c-.352 1.113-1.535 1.793-3.14 1.793-2.169 0-3.552-1.5-3.552-3.832v-.516h8.66v-1.242c0-3.68-1.945-5.871-5.25-5.871-3.234 0-5.378 2.203-5.378 5.554v1.91c0 3.622 2.027 5.72 5.52 5.72 2.671 0 4.687-1.419 5.073-3.516h-1.933Zm-3.293-7.957c2.05 0 3.293 1.465 3.293 3.89h-6.692c0-2.437 1.278-3.89 3.399-3.89Zm19.992 2.484c-.328-2.613-2.25-4.207-5.062-4.207-3.457 0-5.473 2.121-5.473 5.766v1.664c0 3.644 2.016 5.765 5.473 5.765 2.812 0 4.746-1.582 5.062-4.172h-1.969c-.246 1.454-1.488 2.38-3.129 2.38-2.214 0-3.445-1.5-3.445-4.231v-1.149c0-2.73 1.23-4.242 3.445-4.242 1.641 0 2.883.938 3.13 2.426h1.968Zm7.371-7.371v3.445h-3.387v1.7h3.387v7.195c0 2.648 1.465 3.844 4.617 3.844.61 0 2.157-.059 2.473-.118v-1.687c-.34.035-1.617.07-2.332.07-1.793 0-2.766-.75-2.766-2.133v-7.172h5.133v-1.699h-5.156v-3.445h-1.969Zm-442.863 40.227 3.2 4.898h2.308l-4.383-6.445 4.348-6.27h-2.239l-3.152 4.817h-.164l-3.164-4.817h-2.356l4.395 6.352-4.36 6.363h2.204l3.21-4.898zm14.789 4.968c1.16 0 2.121-.972 2.121-2.168 0-1.183-.96-2.156-2.121-2.156-1.16 0-2.121.973-2.121 2.156 0 1.196.96 2.168 2.121 2.168Zm14.883-4.968 3.199 4.898h2.309l-4.383-6.445 4.347-6.27h-2.238l-3.152 4.817h-.164l-3.164-4.817h-2.356l4.395 6.352-4.36 6.363h2.203l3.211-4.898zm20.086-3.856c-.328-2.613-2.25-4.207-5.063-4.207-3.457 0-5.472 2.121-5.472 5.766v1.664c0 3.644 2.015 5.765 5.472 5.765 2.813 0 4.746-1.582 5.063-4.172h-1.969c-.246 1.454-1.488 2.38-3.129 2.38-2.215 0-3.445-1.5-3.445-4.231v-1.149c0-2.73 1.23-4.242 3.445-4.242 1.64 0 2.883.938 3.129 2.426h1.969Zm9.539 8.988c3.363 0 5.508-2.191 5.508-5.625v-1.922c0-3.433-2.145-5.625-5.508-5.625-3.364 0-5.508 2.192-5.508 5.625v1.922c0 3.434 2.144 5.625 5.508 5.625Zm0-11.414c2.18 0 3.539 1.547 3.539 4.043v1.559c0 2.508-1.36 4.043-3.54 4.043-2.179 0-3.538-1.535-3.538-4.043v-1.559c0-2.496 1.36-4.043 3.539-4.043Zm14.038 11.39c1.817 0 3.153-.75 3.81-2.155h.222V247h1.957v-17.707h-2.027v6.96h-.211c-.551-1.394-1.91-2.179-3.75-2.179-2.942 0-4.863 2.121-4.863 5.38v2.366c0 3.27 1.921 5.39 4.863 5.39Zm.587-1.816c-2.098 0-3.446-1.511-3.446-3.855v-1.828c0-2.344 1.348-3.844 3.446-3.844 2.086 0 3.433 1.5 3.433 3.844v1.828c0 2.355-1.347 3.855-3.433 3.855Zm18.48-1.675c-.351 1.113-1.535 1.793-3.14 1.793-2.168 0-3.551-1.5-3.551-3.832v-.516h8.66v-1.242c0-3.68-1.945-5.871-5.25-5.871-3.234 0-5.379 2.203-5.379 5.554v1.91c0 3.622 2.027 5.72 5.52 5.72 2.671 0 4.687-1.419 5.074-3.516h-1.934Zm-3.293-7.957c2.051 0 3.293 1.465 3.293 3.89h-6.691c0-2.437 1.277-3.89 3.398-3.89Zm15.492-1.688c-1.816 0-3.14.75-3.808 2.156h-.211v-1.945h-1.969v17.004h2.028v-6.258h.222c.551 1.395 1.899 2.18 3.738 2.18 2.942 0 4.864-2.121 4.864-5.379v-2.367c0-3.27-1.922-5.39-4.864-5.39Zm-.574 1.828c2.098 0 3.434 1.5 3.434 3.844v1.828c0 2.344-1.336 3.856-3.434 3.856-2.097 0-3.433-1.5-3.433-3.856v-1.828c0-2.344 1.336-3.844 3.433-3.844Zm14.11 5.403c0-3.235 1.664-5.18 4.476-5.18.692 0 1.512.14 2.098.352v-2.239c-.422-.176-1.113-.281-1.84-.281-2.45 0-4.031 1.219-4.5 3.574h-.258v-3.246h-4.746v1.594h2.824v9.527h-2.566V247h8.45v-1.594h-3.938v-4.101Zm15.339 5.929c3.364 0 5.508-2.191 5.508-5.625v-1.922c0-3.433-2.144-5.625-5.508-5.625-3.363 0-5.507 2.192-5.507 5.625v1.922c0 3.434 2.144 5.625 5.507 5.625Zm0-11.414c2.18 0 3.54 1.547 3.54 4.043v1.559c0 2.508-1.36 4.043-3.54 4.043-2.18 0-3.539-1.535-3.539-4.043v-1.559c0-2.496 1.36-4.043 3.54-4.043Zm16.512-4.652c.938 0 1.653-.703 1.653-1.64 0-.926-.715-1.63-1.653-1.63-.937 0-1.652.704-1.652 1.63 0 .937.715 1.64 1.652 1.64Zm1.149 3.117h-7.77v1.652h5.813v10.758c0 1.817-.715 2.38-3.082 2.38-.774 0-2.415-.036-3.024-.095v1.782c.844.07 2.203.093 3.082.093 3.54 0 4.98-1.113 4.98-3.925v-12.645Zm33.046 6.141v-1.852H517.25v1.852zm7.348 6.797c1.852 0 3.235-.762 3.844-2.121h.2v1.91h1.898v-8.707c0-2.649-1.711-4.172-4.7-4.172-2.601 0-4.57 1.394-4.804 3.433h1.957c.328-1.09 1.36-1.71 2.824-1.71 1.77 0 2.742.878 2.742 2.472v1.149l-3.492.175c-2.895.153-4.512 1.489-4.512 3.739 0 2.308 1.617 3.832 4.043 3.832Zm.574-1.746c-1.605 0-2.601-.82-2.601-2.157 0-1.324.937-2.086 2.719-2.168l3.27-.152v1.5c0 1.7-1.466 2.977-3.388 2.977Zm15.047-4.172c0-3.235 1.664-5.18 4.477-5.18.691 0 1.512.14 2.097.352v-2.239c-.421-.176-1.113-.281-1.84-.281-2.449 0-4.03 1.219-4.5 3.574h-.257v-3.246h-4.746v1.594h2.824v9.527h-2.566V247h8.449v-1.594h-3.938v-4.101Zm20.637-3.059c-.328-2.613-2.25-4.207-5.063-4.207-3.457 0-5.472 2.121-5.472 5.766v1.664c0 3.644 2.015 5.765 5.472 5.765 2.813 0 4.747-1.582 5.063-4.172h-1.969c-.246 1.454-1.488 2.38-3.129 2.38-2.215 0-3.445-1.5-3.445-4.231v-1.149c0-2.73 1.23-4.242 3.445-4.242 1.64 0 2.883.938 3.13 2.426h1.968Zm4.324 8.754h1.992v-7.477c0-2.168 1.418-3.632 3.516-3.632 1.992 0 2.93 1.09 2.93 3.375V247h1.992v-8.238c0-3.035-1.5-4.7-4.266-4.7-1.945 0-3.41.891-4.078 2.473h-.164v-7.242h-1.922V247Zm33.598.223c1.851 0 3.234-.762 3.844-2.121h.199v1.91h1.898v-8.707c0-2.649-1.71-4.172-4.699-4.172-2.602 0-4.57 1.394-4.805 3.433h1.957c.328-1.09 1.36-1.71 2.825-1.71 1.77 0 2.742.878 2.742 2.472v1.149l-3.492.175c-2.895.153-4.512 1.489-4.512 3.739 0 2.308 1.617 3.832 4.043 3.832Zm.574-1.746c-1.605 0-2.602-.82-2.602-2.157 0-1.324.938-2.086 2.72-2.168l3.269-.152v1.5c0 1.7-1.465 2.977-3.387 2.977Zm15.047-4.172c0-3.235 1.664-5.18 4.476-5.18.692 0 1.512.14 2.098.352v-2.239c-.422-.176-1.113-.281-1.84-.281-2.449 0-4.03 1.219-4.5 3.574h-.258v-3.246h-4.746v1.594h2.825v9.527h-2.567V247h8.45v-1.594h-3.938v-4.101Zm21.469-3.668c0-2.356-.926-3.586-2.696-3.586-1.277 0-2.297.773-2.625 1.992h-.21c-.27-1.254-1.114-1.992-2.31-1.992-1.194 0-2.109.75-2.425 2.027h-.21v-1.793h-1.782V247h1.793v-8.578c0-1.582.703-2.555 1.828-2.555 1.078 0 1.64.809 1.64 2.344V247h1.782v-8.578c0-1.582.68-2.555 1.793-2.555 1.066 0 1.629.809 1.629 2.356V247h1.793v-9.363Zm14.507 3.937c0-3.082-2.226-5.367-5.238-5.367-1.078 0-2.297.504-2.8 1.184l-.176-.094c.082-.188.035-.14.55-.867l4.618-6.34h-2.38c-.116.176-3.632 5.097-3.784 5.355-1.618 2.356-2.286 4.149-2.286 6.13 0 3.362 2.403 5.777 5.73 5.777 3.352 0 5.766-2.426 5.766-5.778Zm-5.753 3.938c-2.122 0-3.739-1.664-3.739-3.832 0-2.18 1.617-3.844 3.739-3.844 2.132 0 3.75 1.664 3.75 3.844 0 2.168-1.618 3.832-3.75 3.832ZM673.79 247h1.886v-3.574h2.59v-1.817h-2.578v-4.804h-1.875v4.828h-5.543v-.153l5.66-11.39h-2.11l-5.742 11.66v1.676h7.711zm33.89-6.574v-1.852h-12.4v1.852zm4.008-2.707c0 1.804 1.136 2.965 3.433 3.492l1.887.433c1.617.364 2.238.903 2.238 1.91 0 1.22-1.101 2.005-2.836 2.005-1.64 0-2.765-.68-3.058-1.852h-2.028c.223 2.18 2.133 3.527 5.016 3.527 3.012 0 4.969-1.523 4.969-3.867 0-1.84-1.125-2.918-3.598-3.48l-1.793-.41c-1.594-.352-2.25-.903-2.25-1.875 0-1.16 1.043-1.91 2.66-1.91 1.488 0 2.555.68 2.79 1.792h1.921c-.234-2.12-2.027-3.445-4.676-3.445-2.8 0-4.675 1.477-4.675 3.68Zm24.762.527c-.329-2.613-2.25-4.207-5.063-4.207-3.457 0-5.473 2.121-5.473 5.766v1.664c0 3.644 2.016 5.765 5.473 5.765 2.812 0 4.746-1.582 5.062-4.172h-1.968c-.247 1.454-1.489 2.38-3.13 2.38-2.214 0-3.445-1.5-3.445-4.231v-1.149c0-2.73 1.23-4.242 3.446-4.242 1.64 0 2.882.938 3.129 2.426h1.968Zm4.323 8.754h1.993v-7.477c0-2.168 1.418-3.632 3.515-3.632 1.992 0 2.93 1.09 2.93 3.375V247h1.992v-8.238c0-3.035-1.5-4.7-4.265-4.7-1.946 0-3.41.891-4.079 2.473h-.164v-7.242h-1.922V247Zm23.485-3.281c-.352 1.113-1.535 1.793-3.14 1.793-2.169 0-3.552-1.5-3.552-3.832v-.516h8.66v-1.242c0-3.68-1.945-5.871-5.25-5.871-3.234 0-5.378 2.203-5.378 5.554v1.91c0 3.622 2.027 5.72 5.52 5.72 2.671 0 4.687-1.419 5.073-3.516h-1.933Zm-3.293-7.957c2.05 0 3.293 1.465 3.293 3.89h-6.692c0-2.437 1.278-3.89 3.399-3.89Zm20.825 1.875c0-2.356-.927-3.586-2.696-3.586-1.278 0-2.297.773-2.625 1.992h-.211c-.27-1.254-1.113-1.992-2.309-1.992-1.195 0-2.11.75-2.426 2.027h-.21v-1.793h-1.782V247h1.793v-8.578c0-1.582.703-2.555 1.828-2.555 1.079 0 1.641.809 1.641 2.344V247h1.781v-8.578c0-1.582.68-2.555 1.793-2.555 1.067 0 1.63.809 1.63 2.356V247h1.792v-9.363Zm12.14 6.082c-.352 1.113-1.535 1.793-3.14 1.793-2.169 0-3.552-1.5-3.552-3.832v-.516h8.66v-1.242c0-3.68-1.945-5.871-5.25-5.871-3.234 0-5.378 2.203-5.378 5.554v1.91c0 3.622 2.027 5.72 5.52 5.72 2.671 0 4.687-1.419 5.073-3.516h-1.933Zm-3.293-7.957c2.05 0 3.293 1.465 3.293 3.89h-6.692c0-2.437 1.278-3.89 3.399-3.89Zm29.578 6.34 3.2 4.898h2.308l-4.383-6.445 4.348-6.27h-2.239l-3.152 4.817h-.164l-3.164-4.817h-2.356l4.395 6.352-4.36 6.363h2.204l3.21-4.898zm-468.598 27.324v-1.852H339.22v1.852zm13.933-2.18c-.327-2.613-2.25-4.207-5.062-4.207-3.457 0-5.472 2.121-5.472 5.766v1.664c0 3.644 2.015 5.765 5.472 5.765 2.813 0 4.746-1.582 5.063-4.172h-1.969c-.246 1.454-1.488 2.38-3.129 2.38-2.215 0-3.445-1.5-3.445-4.231v-1.149c0-2.73 1.23-4.242 3.445-4.242 1.64 0 2.883.938 3.13 2.426h1.968Zm9.54 8.988c3.363 0 5.508-2.191 5.508-5.625v-1.922c0-3.433-2.145-5.625-5.508-5.625s-5.508 2.192-5.508 5.625v1.922c0 3.434 2.145 5.625 5.508 5.625Zm0-11.414c2.18 0 3.539 1.547 3.539 4.043v1.559c0 2.508-1.36 4.043-3.54 4.043-2.179 0-3.538-1.535-3.538-4.043v-1.559c0-2.496 1.36-4.043 3.539-4.043Zm9.633 11.18h1.992v-7.488c0-2.168 1.406-3.633 3.504-3.633 1.98 0 2.918 1.078 2.918 3.375V276h1.992v-8.25c0-3.047-1.5-4.7-4.266-4.7-1.933 0-3.386.891-4.066 2.473h-.164v-2.238h-1.91V276Zm18.164 0h1.992v-10.98h5.59v-1.7h-5.613v-1.312c0-1.278.937-1.934 2.707-1.934.714 0 2.355.047 2.906.106v-1.63c-.422-.058-2.192-.116-2.93-.116-3.129 0-4.652 1.148-4.652 3.609v1.277h-3.41v1.7h3.41V276Zm16.933-15.832c.938 0 1.653-.703 1.653-1.64 0-.926-.715-1.63-1.653-1.63-.937 0-1.652.704-1.652 1.63 0 .937.715 1.64 1.652 1.64ZM425.152 276v-1.652h-4.207v-11.063h-6.293v1.652h4.325v9.41h-4.36V276h10.535Zm8.907 4.77c3.445 0 5.484-1.782 5.484-4.77v-12.715h-1.969v1.969h-.222c-.551-1.371-1.946-2.18-3.786-2.18-2.976 0-4.921 2.11-4.921 5.38v2.284c0 3.258 1.933 5.38 4.875 5.38 1.851 0 3.257-.81 3.82-2.145h.21v1.98c0 2.04-1.23 3.164-3.456 3.164-1.7 0-2.977-.691-3.235-1.746h-1.968c.257 2.11 2.226 3.398 5.168 3.398Zm-3.41-10.313v-1.746c0-2.332 1.359-3.844 3.468-3.844 2.098 0 3.446 1.5 3.446 3.844v1.746c0 2.344-1.348 3.855-3.446 3.855-2.11 0-3.469-1.523-3.469-3.855Zm23.824-7.172h-1.992v7.488c0 2.168-1.407 3.633-3.504 3.633-1.98 0-2.918-1.078-2.918-3.375v-7.746h-1.993v8.25c0 3.047 1.5 4.7 4.266 4.7 1.934 0 3.387-.891 4.066-2.473h.165V276h1.91v-12.715Zm9.129 7.02c0-3.235 1.664-5.18 4.476-5.18.692 0 1.512.14 2.098.352v-2.239c-.422-.176-1.113-.281-1.84-.281-2.45 0-4.031 1.219-4.5 3.574h-.258v-3.246h-4.746v1.594h2.824v9.527h-2.566V276h8.45v-1.594h-3.938v-4.101Zm14.05 5.918c1.852 0 3.235-.762 3.844-2.121h.2v1.91h1.898v-8.707c0-2.649-1.711-4.172-4.7-4.172-2.601 0-4.57 1.394-4.804 3.433h1.957c.328-1.09 1.36-1.71 2.824-1.71 1.77 0 2.742.878 2.742 2.472v1.149l-3.492.175c-2.894.153-4.512 1.489-4.512 3.739 0 2.308 1.618 3.832 4.043 3.832Zm.575-1.746c-1.606 0-2.602-.82-2.602-2.157 0-1.324.938-2.086 2.719-2.168l3.27-.152v1.5c0 1.7-1.466 2.977-3.387 2.977Zm13.383-14.602v3.445h-3.387v1.7h3.386v7.195c0 2.648 1.465 3.844 4.618 3.844.609 0 2.156-.059 2.472-.118v-1.687c-.34.035-1.617.07-2.332.07-1.793 0-2.765-.75-2.765-2.133v-7.172h5.132v-1.699h-5.156v-3.445h-1.969Zm17.226.293c.937 0 1.652-.703 1.652-1.64 0-.926-.715-1.63-1.652-1.63-.938 0-1.652.704-1.652 1.63 0 .937.714 1.64 1.652 1.64ZM514.168 276v-1.652h-4.207v-11.063h-6.293v1.652h4.324v9.41h-4.36V276h10.536Zm9.282.234c3.363 0 5.507-2.191 5.507-5.625v-1.922c0-3.433-2.144-5.625-5.508-5.625-3.363 0-5.508 2.192-5.508 5.625v1.922c0 3.434 2.145 5.625 5.508 5.625Zm0-11.414c2.179 0 3.538 1.547 3.538 4.043v1.559c0 2.508-1.359 4.043-3.539 4.043s-3.539-1.535-3.539-4.043v-1.559c0-2.496 1.36-4.043 3.54-4.043Zm9.632 11.18h1.992v-7.488c0-2.168 1.407-3.633 3.504-3.633 1.98 0 2.918 1.078 2.918 3.375V276h1.992v-8.25c0-3.047-1.5-4.7-4.265-4.7-1.934 0-3.387.891-4.067 2.473h-.164v-2.238h-1.91V276Zm29.332-16.91V276h4.734c4.793 0 7.208-2.836 7.208-8.484 0-5.602-2.415-8.426-7.208-8.426h-4.734Zm2.074 1.898h2.473c3.574 0 5.285 2.11 5.285 6.54 0 4.476-1.7 6.574-5.285 6.574h-2.473v-13.114Zm23.567 13.114h-7.91v-5.813h7.476v-1.816h-7.476v-5.485h7.91v-1.898h-9.985V276h9.985zm9.89 1.898c3.633 0 5.79-1.758 5.79-4.723 0-2.261-1.489-3.914-3.762-4.136v-.176c1.699-.293 2.906-1.828 2.906-3.692 0-2.625-1.875-4.183-4.992-4.183h-5.473V276h5.531Zm-3.48-15.129h2.953c2.156 0 3.375.996 3.375 2.766 0 1.78-1.289 2.754-3.691 2.754h-2.637v-5.52Zm0 13.336v-6.094h2.965c2.742 0 4.16 1.031 4.16 3.024 0 2.015-1.406 3.07-4.09 3.07h-3.035Zm18 .187c-2.461 0-3.89-1.617-3.89-4.394v-10.91h-2.063v11.039c0 3.89 2.226 6.223 5.953 6.223 3.726 0 5.953-2.333 5.953-6.223v-11.04h-2.062V270c0 2.777-1.43 4.394-3.891 4.394Zm18.855-3.574c0 2.215-1.43 3.574-3.738 3.574-2.73 0-4.16-1.84-4.16-5.343v-3.012c0-3.504 1.418-5.344 4.148-5.344 2.157 0 3.657 1.489 3.75 3.692h2.086c-.082-3.504-2.285-5.649-5.8-5.649-3.973 0-6.27 2.672-6.27 7.301v3.012c0 4.629 2.297 7.3 6.27 7.3 3.41 0 5.8-2.18 5.8-5.355v-3.598h-5.988v1.77h3.902v1.652Zm31.852-1.394v-1.852h-12.399v1.852zm7.84 6.784c1.816 0 3.152-.75 3.808-2.155h.223V276H677v-17.707h-2.027v6.96h-.211c-.551-1.394-1.91-2.179-3.75-2.179-2.942 0-4.864 2.121-4.864 5.38v2.366c0 3.27 1.922 5.39 4.864 5.39Zm.586-1.816c-2.098 0-3.446-1.511-3.446-3.855v-1.828c0-2.344 1.348-3.844 3.446-3.844 2.086 0 3.433 1.5 3.433 3.844v1.828c0 2.355-1.347 3.855-3.433 3.855Zm18.48-1.675c-.351 1.113-1.535 1.793-3.14 1.793-2.168 0-3.551-1.5-3.551-3.832v-.516h8.66v-1.242c0-3.68-1.945-5.871-5.25-5.871-3.234 0-5.379 2.203-5.379 5.554v1.91c0 3.622 2.027 5.72 5.52 5.72 2.671 0 4.687-1.419 5.074-3.516h-1.934Zm-3.293-7.957c2.051 0 3.293 1.465 3.293 3.89h-6.691c0-2.437 1.277-3.89 3.398-3.89Zm14.192 5.543c0-3.235 1.664-5.18 4.476-5.18.692 0 1.512.14 2.098.352v-2.239c-.422-.176-1.113-.281-1.84-.281-2.45 0-4.031 1.219-4.5 3.574h-.258v-3.246h-4.746v1.594h2.824v9.527h-2.566V276h8.45v-1.594h-3.938v-4.101Zm15.563-10.137c.937 0 1.651-.703 1.651-1.64 0-.926-.714-1.63-1.652-1.63-.937 0-1.652.704-1.652 1.63 0 .937.715 1.64 1.652 1.64ZM721.87 276v-1.652h-4.207v-11.063h-6.293v1.652h4.324v9.41h-4.359V276h10.535Zm3.54-12.715L730.063 276h2.191l4.64-12.715h-2.12l-3.528 10.582h-.152l-3.551-10.582zm24.012 9.434c-.352 1.113-1.535 1.793-3.14 1.793-2.169 0-3.551-1.5-3.551-3.832v-.516h8.66v-1.242c0-3.68-1.946-5.871-5.25-5.871-3.235 0-5.38 2.203-5.38 5.554v1.91c0 3.622 2.028 5.72 5.52 5.72 2.672 0 4.688-1.419 5.075-3.516h-1.934Zm-3.293-7.957c2.05 0 3.293 1.465 3.293 3.89h-6.691c0-2.437 1.277-3.89 3.398-3.89Zm13.898 11.448c1.817 0 3.153-.75 3.809-2.155h.223V276h1.957v-17.707h-2.028v6.96h-.21c-.551-1.394-1.91-2.179-3.75-2.179-2.942 0-4.864 2.121-4.864 5.38v2.366c0 3.27 1.922 5.39 4.863 5.39Zm.586-1.816c-2.097 0-3.445-1.511-3.445-3.855v-1.828c0-2.344 1.348-3.844 3.445-3.844 2.086 0 3.434 1.5 3.434 3.844v1.828c0 2.355-1.348 3.855-3.434 3.855Zm9.504-15.304V276h4.735c4.793 0 7.207-2.836 7.207-8.484 0-5.602-2.414-8.426-7.207-8.426h-4.735Zm2.074 1.898h2.473c3.574 0 5.285 2.11 5.285 6.54 0 4.476-1.699 6.574-5.285 6.574h-2.473v-13.114Zm17.016 15.235c1.852 0 3.234-.762 3.844-2.121h.199v1.91h1.898v-8.707c0-2.649-1.71-4.172-4.699-4.172-2.601 0-4.57 1.394-4.804 3.433h1.957c.328-1.09 1.359-1.71 2.824-1.71 1.77 0 2.742.878 2.742 2.472v1.149l-3.492.175c-2.895.153-4.512 1.489-4.512 3.739 0 2.308 1.617 3.832 4.043 3.832Zm.574-1.746c-1.605 0-2.601-.82-2.601-2.157 0-1.324.937-2.086 2.718-2.168l3.27-.152v1.5c0 1.7-1.465 2.977-3.387 2.977Zm13.383-14.602v3.445h-3.387v1.7h3.387v7.195c0 2.648 1.465 3.844 4.617 3.844.61 0 2.157-.059 2.473-.118v-1.687c-.34.035-1.617.07-2.332.07-1.793 0-2.766-.75-2.766-2.133v-7.172h5.133v-1.699h-5.156v-3.445h-1.969Zm15.715 16.348c1.852 0 3.234-.762 3.844-2.121h.199v1.91h1.898v-8.707c0-2.649-1.71-4.172-4.699-4.172-2.601 0-4.57 1.394-4.805 3.433h1.957c.329-1.09 1.36-1.71 2.825-1.71 1.77 0 2.742.878 2.742 2.472v1.149l-3.492.175c-2.895.153-4.512 1.489-4.512 3.739 0 2.308 1.617 3.832 4.043 3.832Zm.574-1.746c-1.605 0-2.601-.82-2.601-2.157 0-1.324.937-2.086 2.718-2.168l3.27-.152v1.5c0 1.7-1.465 2.977-3.387 2.977Zm10.453-15.387V276h2.075v-6.07h3.503c3.305 0 5.473-2.145 5.473-5.414 0-3.282-2.144-5.426-5.426-5.426h-5.625Zm2.075 1.84h3.035c2.46 0 3.843 1.277 3.843 3.586 0 2.296-1.382 3.574-3.843 3.574h-3.035v-7.16Zm16.569 15.293c1.852 0 3.235-.762 3.845-2.121h.199v1.91h1.898v-8.707c0-2.649-1.71-4.172-4.699-4.172-2.602 0-4.57 1.394-4.805 3.433h1.957c.328-1.09 1.36-1.71 2.825-1.71 1.77 0 2.742.878 2.742 2.472v1.149l-3.492.175c-2.895.153-4.512 1.489-4.512 3.739 0 2.308 1.617 3.832 4.043 3.832Zm.575-1.746c-1.605 0-2.602-.82-2.602-2.157 0-1.324.938-2.086 2.72-2.168l3.269-.152v1.5c0 1.7-1.465 2.977-3.387 2.977Zm13.383-14.602v3.445h-3.387v1.7h3.387v7.195c0 2.648 1.465 3.844 4.617 3.844.61 0 2.156-.059 2.473-.118v-1.687c-.34.035-1.617.07-2.332.07-1.793 0-2.766-.75-2.766-2.133v-7.172h5.133v-1.699h-5.156v-3.445h-1.97ZM874.297 276h1.992v-7.477c0-2.168 1.418-3.632 3.516-3.632 1.992 0 2.93 1.09 2.93 3.375V276h1.992v-8.238c0-3.035-1.5-4.7-4.266-4.7-1.945 0-3.41.891-4.078 2.473h-.164v-7.242h-1.922V276Zm34.887.07c1.16 0 2.12-.972 2.12-2.168 0-1.183-.96-2.156-2.12-2.156-1.16 0-2.121.973-2.121 2.156 0 1.196.96 2.168 2.12 2.168Zm11.683 1.535 8.25-20.12h-1.957l-8.238 20.12zm-575.402 22.497 3.2 4.898h2.308l-4.383-6.445 4.348-6.27h-2.239l-3.152 4.817h-.164l-3.164-4.817h-2.356l4.395 6.352-4.36 6.363h2.204l3.21-4.898zm20.085-3.856c-.327-2.613-2.25-4.207-5.062-4.207-3.457 0-5.472 2.121-5.472 5.766v1.664c0 3.644 2.015 5.765 5.472 5.765 2.813 0 4.746-1.582 5.063-4.172h-1.969c-.246 1.454-1.488 2.38-3.129 2.38-2.215 0-3.445-1.5-3.445-4.231v-1.149c0-2.73 1.23-4.242 3.445-4.242 1.64 0 2.883.938 3.13 2.426h1.968Zm9.54 8.988c3.363 0 5.508-2.191 5.508-5.625v-1.922c0-3.433-2.145-5.625-5.508-5.625s-5.508 2.192-5.508 5.625v1.922c0 3.434 2.145 5.625 5.508 5.625Zm0-11.414c2.18 0 3.539 1.547 3.539 4.043v1.559c0 2.508-1.36 4.043-3.54 4.043-2.179 0-3.538-1.535-3.538-4.043v-1.559c0-2.496 1.36-4.043 3.539-4.043Zm14.039 11.39c1.816 0 3.152-.75 3.809-2.155h.222V305h1.957v-17.707h-2.027v6.96h-.211c-.55-1.394-1.91-2.179-3.75-2.179-2.941 0-4.863 2.121-4.863 5.38v2.366c0 3.27 1.922 5.39 4.863 5.39Zm.586-1.816c-2.098 0-3.445-1.511-3.445-3.855v-1.828c0-2.344 1.347-3.844 3.445-3.844 2.086 0 3.433 1.5 3.433 3.844v1.828c0 2.355-1.347 3.855-3.433 3.855Zm18.48-1.675c-.351 1.113-1.535 1.793-3.14 1.793-2.168 0-3.551-1.5-3.551-3.832v-.516h8.66v-1.242c0-3.68-1.945-5.871-5.25-5.871-3.234 0-5.379 2.203-5.379 5.554v1.91c0 3.622 2.028 5.72 5.52 5.72 2.672 0 4.687-1.419 5.074-3.516h-1.934Zm-3.293-7.957c2.051 0 3.293 1.465 3.293 3.89h-6.691c0-2.437 1.277-3.89 3.398-3.89Z" fill="#FFF" fill-rule="nonzero"/><g fill-rule="nonzero"><path d="M340.426 163.8c0 1.911 1.195 3.13 3.562 3.657l1.922.422c1.465.316 2.004.75 2.004 1.594 0 .996-.937 1.652-2.426 1.652-1.453 0-2.425-.574-2.66-1.582h-2.707c.188 2.32 2.18 3.715 5.32 3.715 3.223 0 5.274-1.606 5.274-4.102 0-1.922-1.137-3.011-3.703-3.562l-1.91-.41c-1.395-.305-1.98-.774-1.98-1.594 0-.961.901-1.594 2.273-1.594 1.324 0 2.25.598 2.437 1.559h2.578c-.176-2.309-2.039-3.668-4.98-3.668-3.035 0-5.004 1.523-5.004 3.914Zm14.262 9.2h2.718v-7.441c0-1.946 1.219-3.235 3.07-3.235 1.77 0 2.626.996 2.626 3.047V173h2.73v-8.297c0-3.082-1.523-4.77-4.324-4.77-1.899 0-3.352.891-3.996 2.45h-.176v-7.172h-2.648V173Zm20.402-8.766c1.312 0 2.39-1.101 2.39-2.449 0-1.347-1.078-2.437-2.39-2.437-1.313 0-2.39 1.09-2.39 2.437 0 1.348 1.077 2.45 2.39 2.45Zm0 8.93c1.312 0 2.39-1.113 2.39-2.45 0-1.347-1.078-2.437-2.39-2.437-1.313 0-2.39 1.09-2.39 2.438 0 1.336 1.077 2.45 2.39 2.45Z" fill="#4683FF"/><path fill="#FFF" d="m404.797 168.43 2.824 4.57h3.07l-4.242-6.504 4.219-6.328h-3.012l-2.742 4.547h-.176l-2.742-4.547h-3.164l4.23 6.445-4.195 6.387h2.93l2.824-4.57zm30.82 4.77c2.953 0 4.77-2.063 4.77-5.485v-2.285c0-3.41-1.817-5.485-4.77-5.485-1.851 0-3.164.832-3.644 2.32h-.235v-7.054h-2.824V173h2.777v-2.11h.235c.527 1.5 1.828 2.31 3.691 2.31Zm-.972-2.38c-1.829 0-2.977-1.254-2.977-3.27v-2.003c0-2.027 1.148-3.281 2.977-3.281 1.828 0 2.976 1.265 2.976 3.28v2.005c0 2.015-1.148 3.27-2.976 3.27Zm20.168-10.652h-2.731v7.477c0 1.945-1.195 3.21-3.023 3.21-1.758 0-2.602-.972-2.602-3.035v-7.652h-2.73v8.309c0 3.117 1.511 4.78 4.3 4.78 1.887 0 3.305-.878 3.961-2.448h.188V173h2.637v-12.832Zm9.492-2.848c1.172 0 1.992-.761 1.992-1.863 0-1.101-.82-1.863-1.992-1.863-1.16 0-1.98.762-1.98 1.863 0 1.102.82 1.863 1.98 1.863Zm5.449 15.68v-2.18h-4.031v-10.652h-6.75v2.18h4.09v8.472h-4.231V173h10.922Zm14.836 0v-2.18h-3.996v-15.609h-6.785v2.18h4.066v13.43h-4.207V173zm8.004.2c1.863 0 3.164-.81 3.703-2.31h.234V173h2.766v-17.789h-2.813v7.055h-.234c-.48-1.489-1.805-2.32-3.656-2.32-2.942 0-4.77 2.074-4.77 5.484v2.285c0 3.422 1.828 5.484 4.77 5.484Zm.984-2.38c-1.84 0-2.976-1.254-2.976-3.27v-2.003c0-2.016 1.136-3.281 2.976-3.281 1.828 0 2.965 1.254 2.965 3.28v2.005c0 2.015-1.137 3.27-2.965 3.27Z"/></g><path d="M62.218 57.77c-1.358 0-3.46-1.528-5.672-1.474-2.922.038-5.6 1.676-7.105 4.27-3.032 5.206-.782 12.896 2.175 17.127 1.451 2.06 3.163 4.378 5.431 4.305 2.177-.092 2.994-1.398 5.636-1.398 2.623 0 3.366 1.398 5.672 1.343 2.344-.037 3.832-2.097 5.265-4.176 1.655-2.392 2.343-4.71 2.38-4.838-.056-.019-4.557-1.73-4.612-6.88-.037-4.307 3.552-6.367 3.72-6.46-2.047-2.96-5.19-3.292-6.288-3.365-2.864-.221-5.263 1.544-6.602 1.544v.001Zm4.838-4.344c1.207-1.434 2.005-3.438 1.783-5.426-1.729.074-3.813 1.14-5.059 2.575-1.117 1.27-2.082 3.313-1.823 5.262 1.916.147 3.889-.975 5.097-2.41" fill="#FFF" fill-rule="nonzero"/></g></svg>
