<svg width="1280" height="480" xmlns="http://www.w3.org/2000/svg"><title>banner</title><defs><linearGradient x1="0%" y1="42.969%" x2="100%" y2="50%" id="a"><stop stop-color="#272D34" offset="0%"/><stop stop-color="#0E1116" offset="100%"/></linearGradient></defs><g fill="none" fill-rule="evenodd"><path d="M29.485 0h1221.03c10.253 0 13.97 1.067 17.719 3.072 3.748 2.005 6.69 4.946 8.694 8.694 2.005 3.748 3.072 7.466 3.072 17.719v421.03c0 10.253-1.067 13.97-3.072 17.719-2.005 3.748-4.946 6.69-8.694 8.694-3.748 2.005-7.466 3.072-17.719 3.072H29.485c-10.253 0-13.97-1.067-17.719-3.072-3.748-2.005-6.69-4.946-8.694-8.694C1.067 464.486 0 460.768 0 450.515V29.485c0-10.253 1.067-13.97 3.072-17.719 2.005-3.748 4.946-6.69 8.694-8.694C15.514 1.067 19.232 0 29.485 0Z" fill="url(#a)"/><g fill="#FFF" fill-rule="nonzero"><path d="M355.848 489.633c4.252 0 6.836-2.133 6.836-5.647V469.03h-3.131v2.448h-.274c-.547-1.668-2.215-2.707-4.388-2.707-3.555 0-5.729 2.42-5.729 6.398v2.447c0 3.951 2.147 6.399 5.606 6.399 2.2 0 3.923-1.053 4.457-2.707h.273v2.707c0 2.091-1.271 3.213-3.61 3.213-1.777 0-3.103-.698-3.376-1.778h-3.117c.273 2.584 2.734 4.184 6.453 4.184Zm-3.446-12.223v-2.105c0-2.338 1.381-3.828 3.541-3.828 2.147 0 3.528 1.49 3.528 3.828v2.105c0 2.338-1.381 3.828-3.528 3.828-2.16 0-3.54-1.49-3.54-3.828Zm21.41-11.703c1.368 0 2.325-.889 2.325-2.174s-.957-2.174-2.325-2.174c-1.353 0-2.31.89-2.31 2.174 0 1.285.957 2.174 2.31 2.174ZM380.17 484v-2.543h-4.703V469.03h-7.875v2.543h4.771v9.885h-4.935V484h12.742Zm7.834-19.154v4.279h-3.938v2.57h3.938v7.684c0 3.322 1.627 4.662 5.564 4.662.452 0 2.967-.041 3.213-.082v-2.543c-.26.027-2.42.041-2.967.041-1.695 0-2.638-.738-2.638-2.064v-7.698h5.728v-2.57h-5.783v-4.28h-3.117ZM401.703 484h3.172v-8.682c0-2.27 1.422-3.773 3.582-3.773 2.064 0 3.063 1.162 3.063 3.555v8.9h3.185v-9.68c0-3.595-1.777-5.564-5.045-5.564-2.215 0-3.91 1.039-4.662 2.857h-.205v-8.367h-3.09V484Zm30.27-14.97h-3.186v8.722c0 2.27-1.394 3.746-3.527 3.746-2.051 0-3.035-1.135-3.035-3.54v-8.929h-3.186v9.694c0 3.636 1.764 5.578 5.018 5.578 2.2 0 3.855-1.026 4.62-2.858h.22V484h3.076v-14.97Zm12.222 15.202c3.446 0 5.565-2.406 5.565-6.398v-2.666c0-3.979-2.12-6.398-5.565-6.398-2.16 0-3.691.97-4.252 2.707h-.273v-8.23h-3.295V484h3.24v-2.46h.274c.615 1.75 2.132 2.692 4.306 2.692Zm-1.134-2.775c-2.133 0-3.473-1.463-3.473-3.814v-2.338c0-2.366 1.34-3.828 3.473-3.828 2.132 0 3.472 1.476 3.472 3.828v2.338c0 2.351-1.34 3.814-3.472 3.814ZM350.447 430.268c0 2.228 1.395 3.65 4.157 4.265l2.242.492c1.709.37 2.338.875 2.338 1.86 0 1.162-1.094 1.928-2.83 1.928-1.696 0-2.83-.67-3.104-1.846h-3.158c.219 2.707 2.543 4.334 6.207 4.334 3.76 0 6.152-1.873 6.152-4.785 0-2.243-1.326-3.514-4.32-4.157l-2.229-.478c-1.627-.356-2.31-.902-2.31-1.86 0-1.12 1.053-1.859 2.652-1.859 1.545 0 2.625.697 2.844 1.818h3.008c-.205-2.693-2.38-4.279-5.81-4.279-3.542 0-5.839 1.778-5.839 4.567Zm17.309 0c0 2.228 1.394 3.65 4.156 4.265l2.242.492c1.71.37 2.338.875 2.338 1.86 0 1.162-1.094 1.928-2.83 1.928-1.695 0-2.83-.67-3.103-1.846H367.4c.22 2.707 2.543 4.334 6.207 4.334 3.76 0 6.153-1.873 6.153-4.785 0-2.243-1.326-3.514-4.32-4.157l-2.23-.478c-1.626-.356-2.31-.902-2.31-1.86 0-1.12 1.053-1.859 2.653-1.859 1.545 0 2.625.697 2.843 1.818h3.008c-.205-2.693-2.379-4.279-5.81-4.279-3.541 0-5.838 1.778-5.838 4.567ZM384.395 441h3.171v-8.682c0-2.27 1.422-3.773 3.582-3.773 2.065 0 3.063 1.162 3.063 3.555v8.9h3.185v-9.68c0-3.595-1.777-5.564-5.044-5.564-2.215 0-3.91 1.039-4.663 2.857h-.205v-8.367h-3.09V441ZM354.453 398.246c2.037 0 3.637-.848 4.361-2.338h.288V398h3.021v-10.2c0-3.198-2.105-5.017-5.81-5.017-3.364 0-5.784 1.71-6.057 4.293h3.117c.328-1.094 1.395-1.722 2.857-1.722 1.75 0 2.749.875 2.749 2.42v1.257l-3.747.219c-3.582.219-5.523 1.805-5.523 4.484 0 2.707 1.9 4.512 4.744 4.512Zm1.026-2.598c-1.6 0-2.612-.806-2.612-2.105 0-1.326.97-2.078 2.844-2.188l3.268-.177v1.367c0 1.805-1.477 3.103-3.5 3.103Zm17.691-4.32c0-3.459 1.818-5.346 5.277-5.346.82 0 1.805.165 2.475.424v-3.459c-.52-.205-1.299-.314-2.147-.314-2.843 0-4.511 1.34-5.127 4.224h-.464v-3.828h-6.276v2.38h3.2v10.212h-2.913V398h10.432v-2.379h-4.457v-4.293Zm24.281-3.308c-.355-3.432-2.611-5.332-6.275-5.332-4.28 0-6.7 2.501-6.7 6.945v1.722c0 4.458 2.42 6.946 6.7 6.946 3.65 0 5.933-1.887 6.275-5.237h-3.117c-.273 1.655-1.436 2.557-3.186 2.557-2.242 0-3.472-1.613-3.472-4.553v-1.148c0-2.94 1.23-4.553 3.472-4.553 1.737 0 2.926.944 3.186 2.653h3.117Zm4.252 9.98h3.172v-8.682c0-2.27 1.422-3.773 3.582-3.773 2.065 0 3.063 1.162 3.063 3.555v8.9h3.185v-9.68c0-3.595-1.777-5.564-5.045-5.564-2.215 0-3.91 1.039-4.662 2.857h-.205v-8.367h-3.09V398Zm24.035-18.293c1.367 0 2.325-.889 2.325-2.174s-.958-2.174-2.325-2.174c-1.353 0-2.31.89-2.31 2.174 0 1.285.957 2.174 2.31 2.174ZM432.096 398v-2.543h-4.703V383.03h-7.875v2.543h4.771v9.885h-4.935V398h12.742Zm3.609-14.97 5.332 14.97h3.582l5.305-14.97h-3.377l-3.582 11.812h-.219l-3.623-11.813zm27.973 10.91c-.315 1.107-1.586 1.832-3.24 1.832-2.174 0-3.583-1.477-3.583-3.76v-.725h9.872v-1.818c0-4.156-2.448-6.74-6.385-6.74-3.979 0-6.617 2.597-6.617 6.521v2.338c0 4.266 2.46 6.713 6.726 6.713 3.35 0 5.893-1.791 6.248-4.362h-3.021Zm-3.39-8.696c2.09 0 3.349 1.477 3.349 3.91h-6.782c0-2.447 1.286-3.91 3.432-3.91ZM350.447 344.268c0 2.228 1.395 3.65 4.157 4.265l2.242.492c1.709.37 2.338.875 2.338 1.86 0 1.162-1.094 1.927-2.83 1.927-1.696 0-2.83-.67-3.104-1.845h-3.158c.219 2.707 2.543 4.334 6.207 4.334 3.76 0 6.152-1.873 6.152-4.785 0-2.243-1.326-3.514-4.32-4.157l-2.229-.478c-1.627-.356-2.31-.902-2.31-1.86 0-1.12 1.053-1.859 2.652-1.859 1.545 0 2.625.697 2.844 1.818h3.008c-.205-2.693-2.38-4.279-5.81-4.279-3.542 0-5.839 1.778-5.839 4.567Zm26.688 6.672c-.315 1.107-1.586 1.831-3.24 1.831-2.174 0-3.582-1.476-3.582-3.76v-.724h9.87v-1.818c0-4.157-2.447-6.74-6.384-6.74-3.979 0-6.617 2.597-6.617 6.521v2.338c0 4.266 2.46 6.713 6.726 6.713 3.35 0 5.893-1.791 6.248-4.362h-3.021Zm-3.39-8.696c2.09 0 3.349 1.477 3.349 3.91h-6.781c0-2.447 1.285-3.91 3.431-3.91Zm16.734 6.084c0-3.459 1.818-5.346 5.277-5.346.82 0 1.805.164 2.474.424v-3.459c-.52-.205-1.298-.314-2.146-.314-2.844 0-4.512 1.34-5.127 4.224h-.465v-3.828h-6.275v2.38h3.199v10.212h-2.912V355h10.432v-2.379h-4.457v-4.293Zm10.609-8.298L406.42 355h3.582l5.305-14.97h-3.377l-3.582 11.812h-.22l-3.622-11.813zm27.972 10.91c-.314 1.107-1.585 1.831-3.24 1.831-2.174 0-3.582-1.476-3.582-3.76v-.724h9.871v-1.818c0-4.157-2.447-6.74-6.384-6.74-3.979 0-6.618 2.597-6.618 6.521v2.338c0 4.266 2.461 6.713 6.727 6.713 3.35 0 5.893-1.791 6.248-4.362h-3.021Zm-3.39-8.696c2.092 0 3.35 1.477 3.35 3.91h-6.782c0-2.447 1.285-3.91 3.432-3.91ZM362.834 302.02c-.356-3.432-2.611-5.332-6.275-5.332-4.28 0-6.7 2.501-6.7 6.945v1.722c0 4.458 2.42 6.946 6.7 6.946 3.65 0 5.933-1.887 6.275-5.237h-3.117c-.274 1.655-1.436 2.557-3.186 2.557-2.242 0-3.472-1.613-3.472-4.553v-1.148c0-2.94 1.23-4.553 3.472-4.553 1.737 0 2.926.944 3.186 2.653h3.117Zm10.746 10.28c4.129 0 6.74-2.57 6.74-6.644v-2.283c0-4.074-2.611-6.644-6.74-6.644s-6.74 2.57-6.74 6.644v2.283c0 4.074 2.611 6.645 6.74 6.645Zm0-12.933c2.215 0 3.596 1.6 3.596 4.184v1.928c0 2.584-1.381 4.183-3.596 4.183s-3.596-1.6-3.596-4.183v-1.928c0-2.584 1.381-4.184 3.596-4.184Zm15.928 12.865c2.174 0 3.691-.943 4.32-2.693h.273V312h3.227v-20.754h-3.281v8.23h-.274c-.56-1.736-2.105-2.706-4.265-2.706-3.432 0-5.565 2.42-5.565 6.398v2.666c0 3.992 2.133 6.398 5.565 6.398Zm1.148-2.775c-2.146 0-3.472-1.463-3.472-3.814v-2.338c0-2.352 1.326-3.828 3.472-3.828 2.133 0 3.46 1.462 3.46 3.828v2.338c0 2.351-1.327 3.814-3.46 3.814Zm21.096-1.517c-.315 1.107-1.586 1.831-3.24 1.831-2.174 0-3.582-1.476-3.582-3.76v-.724h9.87v-1.818c0-4.156-2.447-6.74-6.384-6.74-3.979 0-6.617 2.597-6.617 6.521v2.338c0 4.266 2.46 6.713 6.726 6.713 3.35 0 5.893-1.791 6.248-4.362h-3.021Zm-3.39-8.696c2.091 0 3.349 1.477 3.349 3.91h-6.781c0-2.447 1.285-3.91 3.431-3.91Z" fill-opacity=".242"/><path d="M321.695 263.668 324.99 269h3.582l-4.949-7.588 4.922-7.383h-3.514l-3.199 5.305h-.205l-3.2-5.305h-3.69l4.935 7.52-4.895 7.451h3.418l3.295-5.332zm35.957 5.564c3.446 0 5.565-2.406 5.565-6.398v-2.666c0-3.979-2.12-6.398-5.565-6.398-2.16 0-3.691.97-4.252 2.707h-.273v-8.23h-3.295V269h3.24v-2.46h.274c.615 1.75 2.132 2.692 4.306 2.692Zm-1.134-2.775c-2.133 0-3.473-1.463-3.473-3.814v-2.338c0-2.366 1.34-3.828 3.473-3.828 2.132 0 3.472 1.476 3.472 3.828v2.338c0 2.351-1.34 3.814-3.472 3.814Zm23.529-12.427h-3.186v8.722c0 2.27-1.394 3.746-3.527 3.746-2.05 0-3.035-1.135-3.035-3.54v-8.929h-3.186v9.694c0 3.636 1.764 5.578 5.018 5.578 2.201 0 3.855-1.026 4.62-2.858h.22V269h3.076v-14.97Zm11.074-3.323c1.367 0 2.324-.889 2.324-2.174s-.957-2.174-2.324-2.174c-1.353 0-2.31.89-2.31 2.174 0 1.285.957 2.174 2.31 2.174ZM397.478 269v-2.543h-4.703V254.03H384.9v2.543h4.772v9.885h-4.936V269h12.742Zm17.309 0v-2.543h-4.662v-18.21h-7.916v2.542h4.744v15.668h-4.908V269zm9.338.232c2.174 0 3.691-.943 4.32-2.693h.274V269h3.226v-20.754h-3.281v8.23h-.273c-.56-1.736-2.106-2.706-4.266-2.706-3.432 0-5.564 2.42-5.564 6.398v2.666c0 3.992 2.132 6.398 5.564 6.398Zm1.148-2.775c-2.146 0-3.472-1.463-3.472-3.814v-2.338c0-2.352 1.326-3.828 3.472-3.828 2.133 0 3.46 1.462 3.46 3.828v2.338c0 2.351-1.327 3.814-3.46 3.814Z"/><path d="M356.504 207.707c1.367 0 2.324-.889 2.324-2.174s-.957-2.174-2.324-2.174c-1.354 0-2.31.89-2.31 2.174 0 1.285.956 2.174 2.31 2.174ZM362.86 226v-2.543h-4.703V211.03h-7.875v2.543h4.772v9.885h-4.936V226h12.742Zm4.253 0h3.186v-8.723c0-2.27 1.394-3.76 3.527-3.76 2.05 0 3.035 1.149 3.035 3.555V226h3.186v-9.707c0-3.623-1.764-5.564-5.018-5.564-2.2 0-3.855 1.025-4.62 2.857h-.22v-2.557h-3.076V226Zm17.951-10.732c0 2.228 1.395 3.65 4.157 4.265l2.242.492c1.709.37 2.338.875 2.338 1.86 0 1.162-1.094 1.928-2.83 1.928-1.696 0-2.83-.67-3.104-1.846h-3.158c.219 2.707 2.543 4.334 6.207 4.334 3.76 0 6.152-1.873 6.152-4.785 0-2.243-1.326-3.514-4.32-4.157l-2.229-.478c-1.626-.356-2.31-.902-2.31-1.86 0-1.12 1.053-1.859 2.652-1.859 1.545 0 2.625.697 2.844 1.818h3.008c-.205-2.693-2.38-4.279-5.81-4.279-3.542 0-5.839 1.778-5.839 4.567Zm20.248-8.422v4.279h-3.937v2.57h3.937v7.684c0 3.322 1.627 4.662 5.565 4.662.451 0 2.967-.041 3.213-.082v-2.543c-.26.027-2.42.041-2.967.041-1.695 0-2.639-.738-2.639-2.064v-7.698h5.729v-2.57h-5.783v-4.28h-3.118Zm18.375 19.4c2.038 0 3.637-.848 4.362-2.338h.287V226h3.021v-10.2c0-3.198-2.105-5.017-5.81-5.017-3.363 0-5.783 1.71-6.057 4.293h3.117c.329-1.094 1.395-1.722 2.858-1.722 1.75 0 2.748.875 2.748 2.42v1.257l-3.746.219c-3.582.219-5.524 1.805-5.524 4.484 0 2.707 1.9 4.512 4.744 4.512Zm1.026-2.598c-1.6 0-2.611-.806-2.611-2.105 0-1.326.97-2.078 2.843-2.188l3.268-.177v1.367c0 1.805-1.477 3.103-3.5 3.103ZM449.404 226v-2.543h-4.662v-18.21h-7.916v2.542h4.744v15.668h-4.908V226zm17.309 0v-2.543h-4.662v-18.21h-7.916v2.542h4.744v15.668h-4.908V226z" fill-opacity=".242"/><path d="M362.834 173.02c-.356-3.432-2.611-5.332-6.275-5.332-4.28 0-6.7 2.501-6.7 6.945v1.722c0 4.458 2.42 6.946 6.7 6.946 3.65 0 5.933-1.887 6.275-5.237h-3.117c-.274 1.655-1.436 2.557-3.186 2.557-2.242 0-3.472-1.613-3.472-4.553v-1.148c0-2.94 1.23-4.553 3.472-4.553 1.737 0 2.926.944 3.186 2.653h3.117Zm10.746 10.28c4.129 0 6.74-2.57 6.74-6.644v-2.283c0-4.074-2.611-6.644-6.74-6.644s-6.74 2.57-6.74 6.644v2.283c0 4.074 2.611 6.645 6.74 6.645Zm0-12.933c2.215 0 3.596 1.6 3.596 4.184v1.928c0 2.584-1.381 4.183-3.596 4.183s-3.596-1.6-3.596-4.183v-1.928c0-2.584 1.381-4.184 3.596-4.184Zm24.732 1.258c0-2.543-1.025-3.896-2.966-3.896-1.463 0-2.57.93-2.912 2.46h-.342c-.315-1.572-1.272-2.46-2.666-2.46-1.436 0-2.489.916-2.83 2.543h-.342v-2.243h-2.79V183h2.735v-10.213c0-1.408.684-2.297 1.75-2.297 1.026 0 1.6.766 1.6 2.147V183h2.72v-10.213c0-1.408.657-2.297 1.71-2.297 1.011 0 1.6.78 1.6 2.147V183h2.733v-11.375Zm11.266-3.842c-2.16 0-3.678.957-4.307 2.707h-.273v-2.46h-3.227v19.988h3.282v-7.465h.273c.56 1.722 2.092 2.707 4.252 2.707 3.445 0 5.578-2.42 5.578-6.412v-2.666c0-3.979-2.133-6.399-5.578-6.399Zm-1.135 2.79c2.147 0 3.473 1.462 3.473 3.814v2.351c0 2.338-1.326 3.815-3.473 3.815-2.133 0-3.459-1.463-3.459-3.815v-2.351c0-2.352 1.326-3.815 3.46-3.815Zm17.295-5.866c1.367 0 2.324-.889 2.324-2.174s-.957-2.174-2.324-2.174c-1.353 0-2.31.89-2.31 2.174 0 1.285.957 2.174 2.31 2.174ZM432.096 183v-2.543h-4.703V168.03h-7.875v2.543h4.771v9.885h-4.936V183h12.743Zm17.308 0v-2.543h-4.662v-18.21h-7.916v2.542h4.744v15.668h-4.908V183zm14.274-4.06c-.315 1.107-1.586 1.832-3.24 1.832-2.174 0-3.583-1.477-3.583-3.76v-.725h9.871v-1.818c0-4.156-2.447-6.74-6.384-6.74-3.979 0-6.617 2.597-6.617 6.521v2.338c0 4.266 2.46 6.713 6.726 6.713 3.35 0 5.893-1.791 6.248-4.362h-3.021Zm-3.391-8.696c2.092 0 3.35 1.477 3.35 3.91h-6.782c0-2.447 1.286-3.91 3.432-3.91Z" fill-opacity=".24"/><path d="M353.387 120.846v4.279h-3.938v2.57h3.938v7.684c0 3.322 1.627 4.662 5.564 4.662.451 0 2.967-.041 3.213-.082v-2.543c-.26.027-2.42.041-2.967.041-1.695 0-2.638-.738-2.638-2.064v-7.698h5.728v-2.57h-5.783v-4.28h-3.117Zm23.748 15.094c-.315 1.107-1.586 1.831-3.24 1.831-2.174 0-3.583-1.476-3.583-3.76v-.724h9.872v-1.818c0-4.157-2.448-6.74-6.385-6.74-3.979 0-6.617 2.597-6.617 6.521v2.338c0 4.266 2.46 6.713 6.726 6.713 3.35 0 5.893-1.791 6.248-4.362h-3.021Zm-3.39-8.696c2.09 0 3.349 1.477 3.349 3.91h-6.782c0-2.447 1.286-3.91 3.432-3.91Zm11.319 2.024c0 2.228 1.395 3.65 4.157 4.265l2.242.492c1.709.37 2.338.875 2.338 1.86 0 1.162-1.094 1.927-2.83 1.927-1.696 0-2.83-.67-3.104-1.845h-3.158c.219 2.707 2.543 4.334 6.207 4.334 3.76 0 6.152-1.873 6.152-4.785 0-2.243-1.326-3.514-4.32-4.157l-2.228-.478c-1.627-.356-2.311-.902-2.311-1.86 0-1.12 1.053-1.859 2.652-1.859 1.545 0 2.625.697 2.844 1.818h3.008c-.205-2.693-2.379-4.279-5.81-4.279-3.542 0-5.839 1.778-5.839 4.567Zm20.248-8.422v4.279h-3.937v2.57h3.937v7.684c0 3.322 1.627 4.662 5.565 4.662.451 0 2.967-.041 3.213-.082v-2.543c-.26.027-2.42.041-2.967.041-1.695 0-2.639-.738-2.639-2.064v-7.698h5.729v-2.57h-5.783v-4.28h-3.118ZM357.652 81.783c-2.16 0-3.677.957-4.306 2.707h-.274v-2.46h-3.226v19.988h3.281v-7.465h.273c.56 1.722 2.092 2.707 4.252 2.707 3.446 0 5.578-2.42 5.578-6.412v-2.666c0-3.979-2.132-6.399-5.578-6.399Zm-1.134 2.79c2.146 0 3.472 1.462 3.472 3.814v2.351c0 2.338-1.326 3.815-3.472 3.815-2.133 0-3.46-1.463-3.46-3.815v-2.351c0-2.352 1.327-3.815 3.46-3.815Zm23.529-2.543h-3.186v8.722c0 2.27-1.394 3.746-3.527 3.746-2.05 0-3.035-1.135-3.035-3.54v-8.929h-3.186v9.694c0 3.636 1.764 5.578 5.018 5.578 2.201 0 3.855-1.026 4.621-2.858h.219V97h3.076V82.03Zm12.223 15.202c3.445 0 5.564-2.406 5.564-6.398v-2.666c0-3.979-2.12-6.398-5.564-6.398-2.16 0-3.692.97-4.252 2.707h-.274v-8.23h-3.295V97h3.24v-2.46h.274c.615 1.75 2.133 2.692 4.307 2.692Zm-1.135-2.775c-2.133 0-3.473-1.463-3.473-3.814v-2.338c0-2.366 1.34-3.828 3.473-3.828s3.472 1.476 3.472 3.828v2.338c0 2.351-1.34 3.814-3.472 3.814ZM414.787 97v-2.543h-4.662v-18.21h-7.916v2.542h4.744v15.668h-4.908V97zm10.951-18.293c1.367 0 2.324-.889 2.324-2.174s-.957-2.174-2.324-2.174c-1.353 0-2.31.89-2.31 2.174 0 1.285.957 2.174 2.31 2.174ZM432.096 97v-2.543h-4.703V82.03h-7.875v2.543h4.771v9.885h-4.935V97h12.742Zm4.894-10.732c0 2.228 1.395 3.65 4.156 4.265l2.243.492c1.709.37 2.338.875 2.338 1.86 0 1.162-1.094 1.928-2.83 1.928-1.696 0-2.83-.67-3.104-1.846h-3.158c.219 2.707 2.543 4.334 6.207 4.334 3.76 0 6.152-1.873 6.152-4.785 0-2.243-1.326-3.514-4.32-4.157l-2.229-.478c-1.627-.356-2.31-.902-2.31-1.86 0-1.12 1.052-1.859 2.652-1.859 1.545 0 2.625.697 2.844 1.818h3.008c-.205-2.693-2.38-4.279-5.81-4.279-3.542 0-5.839 1.778-5.839 4.567ZM453.629 97h3.172v-8.682c0-2.27 1.422-3.773 3.582-3.773 2.064 0 3.062 1.162 3.062 3.555V97h3.186v-9.68c0-3.595-1.777-5.564-5.045-5.564-2.215 0-3.91 1.039-4.662 2.857h-.205v-8.367h-3.09V97ZM362.834 44.02c-.356-3.432-2.611-5.332-6.275-5.332-4.28 0-6.7 2.501-6.7 6.945v1.722c0 4.458 2.42 6.946 6.7 6.946 3.65 0 5.933-1.887 6.275-5.237h-3.117c-.274 1.655-1.436 2.557-3.186 2.557-2.242 0-3.472-1.613-3.472-4.553V45.92c0-2.94 1.23-4.553 3.472-4.553 1.737 0 2.926.944 3.186 2.653h3.117ZM380.17 54v-2.543h-4.662v-18.21h-7.916v2.542h4.744v15.668h-4.908V54zm10.719.3c4.129 0 6.74-2.57 6.74-6.644v-2.283c0-4.074-2.611-6.644-6.74-6.644-4.13 0-6.74 2.57-6.74 6.644v2.283c0 4.074 2.61 6.645 6.74 6.645Zm0-12.933c2.214 0 3.595 1.6 3.595 4.184v1.928c0 2.584-1.38 4.183-3.595 4.183-2.215 0-3.596-1.6-3.596-4.183V45.55c0-2.584 1.38-4.184 3.596-4.184Zm23.775-2.337h-3.186v8.722c0 2.27-1.394 3.746-3.527 3.746-2.05 0-3.035-1.135-3.035-3.541v-8.928h-3.186v9.694c0 3.636 1.764 5.578 5.018 5.578 2.201 0 3.855-1.026 4.621-2.858h.219V54h3.076V39.03Zm9.461 15.202c2.174 0 3.691-.943 4.32-2.693h.274V54h3.226V33.246h-3.281v8.23h-.273c-.561-1.736-2.106-2.706-4.266-2.706-3.432 0-5.565 2.42-5.565 6.398v2.666c0 3.992 2.133 6.398 5.565 6.398Zm1.148-2.775c-2.146 0-3.472-1.463-3.472-3.814v-2.338c0-2.352 1.326-3.828 3.472-3.828 2.133 0 3.46 1.462 3.46 3.828v2.338c0 2.351-1.327 3.814-3.46 3.814ZM357.652-4.217c-2.16 0-3.677.957-4.306 2.707h-.274v-2.46h-3.226v19.988h3.281V8.553h.273c.56 1.722 2.092 2.707 4.252 2.707 3.446 0 5.578-2.42 5.578-6.412V2.182c0-3.979-2.132-6.399-5.578-6.399Zm-1.134 2.79c2.146 0 3.472 1.462 3.472 3.814v2.351c0 2.338-1.326 3.815-3.472 3.815-2.133 0-3.46-1.463-3.46-3.815V2.387c0-2.352 1.327-3.815 3.46-3.815Zm15.244 12.673c2.037 0 3.636-.848 4.361-2.338h.287V11h3.022V.8c0-3.198-2.106-5.017-5.81-5.017-3.364 0-5.784 1.71-6.058 4.293h3.118c.328-1.094 1.394-1.722 2.857-1.722 1.75 0 2.748.875 2.748 2.42V2.03l-3.746.219c-3.582.219-5.523 1.805-5.523 4.484 0 2.707 1.9 4.512 4.744 4.512Zm1.025-2.598c-1.6 0-2.611-.806-2.611-2.105 0-1.326.97-2.078 2.844-2.188l3.267-.177v1.367c0 1.805-1.476 3.103-3.5 3.103Zm24.664-7.628c-.355-3.432-2.611-5.332-6.275-5.332-4.28 0-6.7 2.501-6.7 6.945v1.722c0 4.458 2.42 6.946 6.7 6.946 3.65 0 5.933-1.887 6.275-5.237h-3.117c-.273 1.655-1.436 2.557-3.186 2.557-2.242 0-3.472-1.613-3.472-4.553V2.92c0-2.94 1.23-4.553 3.472-4.553 1.737 0 2.926.944 3.186 2.653h3.117Zm8.586 1.312h-.205V-9.754h-3.172V11h3.172V5.832l1.682-1.668L412.162 11h3.705l-6.03-8.873 5.647-6.098h-3.705zm17.65 8.914c2.038 0 3.637-.848 4.362-2.338h.287V11h3.021V.8c0-3.198-2.105-5.017-5.81-5.017-3.363 0-5.783 1.71-6.057 4.293h3.117c.329-1.094 1.395-1.722 2.858-1.722 1.75 0 2.748.875 2.748 2.42V2.03l-3.746.219c-3.582.219-5.524 1.805-5.524 4.484 0 2.707 1.9 4.512 4.744 4.512Zm1.026-2.598c-1.6 0-2.611-.806-2.611-2.105 0-1.326.97-2.078 2.843-2.188l3.268-.177v1.367c0 1.805-1.477 3.103-3.5 3.103Zm17.677 7.985c4.253 0 6.837-2.133 6.837-5.647V-3.97h-3.131v2.448h-.274c-.547-1.668-2.215-2.707-4.388-2.707-3.555 0-5.729 2.42-5.729 6.398v2.447c0 3.951 2.147 6.399 5.606 6.399 2.2 0 3.923-1.053 4.457-2.707h.273v2.707c0 2.091-1.271 3.213-3.61 3.213-1.777 0-3.103-.698-3.376-1.778h-3.118c.274 2.584 2.735 4.184 6.454 4.184ZM438.946 4.41V2.305c0-2.338 1.381-3.828 3.541-3.828 2.147 0 3.528 1.49 3.528 3.828V4.41c0 2.338-1.381 3.828-3.528 3.828-2.16 0-3.54-1.49-3.54-3.828Zm24.732 2.53c-.315 1.107-1.586 1.831-3.24 1.831-2.174 0-3.583-1.476-3.583-3.76v-.724h9.872V2.47c0-4.156-2.448-6.74-6.385-6.74-3.979 0-6.617 2.597-6.617 6.521v2.338c0 4.266 2.46 6.713 6.726 6.713 3.35 0 5.893-1.791 6.248-4.362h-3.021Zm-3.39-8.696c2.09 0 3.349 1.477 3.349 3.91h-6.782c0-2.447 1.286-3.91 3.432-3.91Z" fill-opacity=".242"/></g><path d="M685.898 233.133c1.977 0 3.141-1.36 3.141-3.703v-1.485c0-2.343-1.164-3.703-3.14-3.703-1.235 0-2.094.578-2.383 1.61h-.164v-4.75h-2.227V233h2.203v-1.484h.156c.305 1.047 1.157 1.617 2.414 1.617Zm-.82-1.852c-1.101 0-1.781-.726-1.781-1.914v-1.422c0-1.187.68-1.906 1.781-1.906 1.11 0 1.781.719 1.781 1.906v1.422c0 1.188-.672 1.914-1.78 1.914Zm13.594-6.898h-2.133v4.984c0 1.188-.71 1.946-1.805 1.946-1.086 0-1.593-.602-1.593-1.868v-5.062H691v5.578c0 2.102 1 3.227 2.875 3.227 1.242 0 2.172-.594 2.594-1.633h.133V233h2.07v-8.617Zm6.18-1.758c.875 0 1.468-.539 1.468-1.352 0-.812-.593-1.351-1.468-1.351s-1.461.539-1.461 1.351c0 .813.586 1.352 1.46 1.352Zm3.68 10.375v-1.703h-2.602v-6.914h-4.703v1.71h2.625v5.204h-2.766V233h7.445Zm9.89 0v-1.703h-2.57v-10.195h-4.735v1.703h2.594v8.492h-2.734V233zm5.133.133c1.265 0 2.117-.57 2.414-1.617h.164V233h2.203v-11.898h-2.234v4.75h-.157c-.289-1.032-1.148-1.61-2.39-1.61-1.97 0-3.14 1.36-3.14 3.703v1.485c0 2.343 1.17 3.703 3.14 3.703Zm.828-1.852c-1.11 0-1.79-.726-1.79-1.914v-1.422c0-1.187.68-1.906 1.79-1.906 1.101 0 1.773.719 1.773 1.906v1.422c0 1.188-.672 1.914-1.773 1.914Zm19.937-1.547 2.133 3.266h1.54l-2.923-4.297 2.899-4.18h-1.492l-2.102 3.211h-.11l-2.109-3.21h-1.57l2.93 4.234-2.907 4.242h1.47l2.14-3.266zm13.39-2.57c-.218-1.742-1.5-2.805-3.374-2.805-2.305 0-3.649 1.414-3.649 3.844v1.11c0 2.43 1.344 3.843 3.649 3.843 1.875 0 3.164-1.054 3.375-2.781h-1.313c-.164.969-.992 1.586-2.086 1.586-1.476 0-2.296-1-2.296-2.82v-.766c0-1.82.82-2.828 2.297-2.828 1.093 0 1.921.625 2.085 1.617h1.313Zm6.36 5.992c2.242 0 3.672-1.46 3.672-3.75v-1.281c0-2.289-1.43-3.75-3.672-3.75s-3.672 1.461-3.672 3.75v1.281c0 2.29 1.43 3.75 3.672 3.75Zm0-7.61c1.453 0 2.36 1.032 2.36 2.696v1.04c0 1.671-.907 2.695-2.36 2.695-1.453 0-2.36-1.024-2.36-2.696v-1.039c0-1.664.907-2.695 2.36-2.695Zm9.36 7.594c1.21 0 2.101-.5 2.539-1.437h.148V233h1.305v-11.805h-1.352v4.641h-.14c-.367-.93-1.274-1.453-2.5-1.453-1.961 0-3.242 1.414-3.242 3.586v1.578c0 2.18 1.28 3.594 3.242 3.594Zm.39-1.21c-1.398 0-2.297-1.008-2.297-2.57v-1.22c0-1.562.899-2.562 2.297-2.562 1.39 0 2.29 1 2.29 2.563v1.218c0 1.57-.9 2.57-2.29 2.57Zm12.32-1.117c-.234.742-1.023 1.195-2.093 1.195-1.445 0-2.367-1-2.367-2.555v-.344h5.773v-.828c0-2.453-1.297-3.914-3.5-3.914-2.156 0-3.586 1.469-3.586 3.703v1.274c0 2.414 1.352 3.812 3.68 3.812 1.781 0 3.125-.945 3.383-2.343h-1.29Zm-2.195-5.305c1.367 0 2.196.976 2.196 2.594h-4.461c0-1.625.851-2.594 2.265-2.594Zm10.328 7.632c1.961 0 3.243-1.413 3.243-3.593v-1.578c0-2.172-1.282-3.586-3.243-3.586-1.226 0-2.125.523-2.5 1.453h-.14v-4.64h-1.352V233h1.305v-1.297h.148c.438.938 1.328 1.438 2.54 1.438Zm-.39-1.21c-1.39 0-2.281-1-2.281-2.57v-1.22c0-1.562.89-2.562 2.28-2.562 1.407 0 2.298 1 2.298 2.563v1.218c0 1.563-.89 2.57-2.297 2.57Zm13.219-7.407h-1.329v4.993c0 1.445-.937 2.422-2.336 2.422-1.32 0-1.945-.72-1.945-2.25v-5.165h-1.328v5.5c0 2.032 1 3.133 2.844 3.133 1.289 0 2.258-.593 2.71-1.648h.11V233h1.274v-8.477Zm6.57-2.078c.625 0 1.101-.468 1.101-1.093 0-.618-.476-1.086-1.101-1.086s-1.102.468-1.102 1.086c0 .625.477 1.093 1.102 1.093ZM817.227 233v-1.102h-2.805v-7.375h-4.195v1.102h2.882v6.273h-2.906V233h7.024Zm9.89 0v-1.102h-2.797v-10.703h-4.203v1.102h2.875v9.601h-2.898V233zm5.656.14c1.211 0 2.102-.5 2.54-1.437h.148V233h1.305v-11.805h-1.352v4.641h-.14c-.368-.93-1.274-1.453-2.5-1.453-1.962 0-3.243 1.414-3.243 3.586v1.578c0 2.18 1.282 3.594 3.242 3.594Zm.391-1.21c-1.398 0-2.297-1.008-2.297-2.57v-1.22c0-1.562.899-2.562 2.297-2.562 1.39 0 2.29 1 2.29 2.563v1.218c0 1.57-.9 2.57-2.29 2.57Zm23.453-4.766c-.219-1.742-1.5-2.805-3.375-2.805-2.304 0-3.648 1.414-3.648 3.844v1.11c0 2.43 1.343 3.843 3.648 3.843 1.875 0 3.164-1.054 3.375-2.781h-1.312c-.164.969-.992 1.586-2.086 1.586-1.477 0-2.297-1-2.297-2.82v-.766c0-1.82.82-2.828 2.297-2.828 1.093 0 1.922.625 2.086 1.617h1.312ZM866.68 233v-1.102h-2.797v-10.703h-4.203v1.102h2.875v9.601h-2.899V233zm8.476-2.187c-.234.742-1.023 1.195-2.093 1.195-1.446 0-2.368-1-2.368-2.555v-.344h5.774v-.828c0-2.453-1.297-3.914-3.5-3.914-2.157 0-3.586 1.469-3.586 3.703v1.274c0 2.414 1.351 3.812 3.68 3.812 1.78 0 3.125-.945 3.382-2.343h-1.289Zm-2.195-5.305c1.367 0 2.195.976 2.195 2.594h-4.46c0-1.625.85-2.594 2.265-2.594Zm8.937 7.64c1.235 0 2.157-.507 2.563-1.414h.133v1.274h1.265v-5.805c0-1.765-1.14-2.781-3.132-2.781-1.735 0-3.047.93-3.204 2.289h1.305c.219-.727.906-1.14 1.883-1.14 1.18 0 1.828.585 1.828 1.648v.765l-2.328.118c-1.93.101-3.008.992-3.008 2.492 0 1.539 1.078 2.554 2.695 2.554Zm.383-1.164c-1.07 0-1.734-.546-1.734-1.437 0-.883.625-1.39 1.812-1.445l2.18-.102v1c0 1.133-.976 1.984-2.258 1.984ZM889.18 233h1.328v-4.992c0-1.445.937-2.422 2.336-2.422 1.32 0 1.945.719 1.945 2.25V233h1.328v-5.5c0-2.031-1-3.133-2.844-3.133-1.289 0-2.257.594-2.71 1.649h-.11v-1.493h-1.273V233Zm23.78.14c1.962 0 3.243-1.413 3.243-3.593v-1.578c0-2.172-1.281-3.586-3.242-3.586-1.227 0-2.125.523-2.5 1.453h-.14v-4.64h-1.352V233h1.304v-1.297h.149c.437.938 1.328 1.438 2.539 1.438Zm-.39-1.21c-1.39 0-2.28-1-2.28-2.57v-1.22c0-1.562.89-2.562 2.28-2.562 1.407 0 2.297 1 2.297 2.563v1.218c0 1.563-.89 2.57-2.297 2.57Zm13.22-7.407h-1.33v4.993c0 1.445-.937 2.422-2.335 2.422-1.32 0-1.945-.72-1.945-2.25v-5.165h-1.328v5.5c0 2.032 1 3.133 2.843 3.133 1.29 0 2.258-.593 2.711-1.648h.11V233h1.273v-8.477Zm6.57-2.078c.624 0 1.1-.468 1.1-1.093 0-.618-.476-1.086-1.1-1.086-.626 0-1.102.468-1.102 1.086 0 .625.476 1.093 1.101 1.093ZM935.913 233v-1.102h-2.805v-7.375h-4.195v1.102h2.883v6.273h-2.906V233h7.023Zm9.892 0v-1.102h-2.797v-10.703h-4.203v1.102h2.875v9.601h-2.899V233zm5.655.14c1.212 0 2.102-.5 2.54-1.437h.148V233h1.305v-11.805h-1.351v4.641h-.141c-.367-.93-1.274-1.453-2.5-1.453-1.961 0-3.242 1.414-3.242 3.586v1.578c0 2.18 1.281 3.594 3.242 3.594Zm.392-1.21c-1.399 0-2.297-1.008-2.297-2.57v-1.22c0-1.562.898-2.562 2.297-2.562 1.39 0 2.289 1 2.289 2.563v1.218c0 1.57-.899 2.57-2.29 2.57Zm24.054-3.313v-1.234h-8.265v1.234zm6.289-4.234c-1.21 0-2.093.5-2.539 1.437h-.14v-1.297h-1.313v11.336h1.352v-4.171h.148c.367.93 1.266 1.453 2.492 1.453 1.961 0 3.242-1.414 3.242-3.586v-1.578c0-2.18-1.28-3.594-3.242-3.594Zm-.383 1.219c1.399 0 2.29 1 2.29 2.562v1.219c0 1.562-.891 2.57-2.29 2.57-1.398 0-2.289-1-2.289-2.57v-1.219c0-1.562.891-2.562 2.29-2.562Zm9.407 3.601c0-2.156 1.11-3.453 2.984-3.453.461 0 1.008.094 1.399.234v-1.492c-.282-.117-.743-.187-1.227-.187-1.633 0-2.688.812-3 2.383h-.172v-2.165h-3.164v1.063h1.883v6.352h-1.711V233h5.633v-1.062h-2.625v-2.735Zm10.226 3.953c2.242 0 3.672-1.46 3.672-3.75v-1.281c0-2.289-1.43-3.75-3.672-3.75s-3.672 1.461-3.672 3.75v1.281c0 2.29 1.43 3.75 3.672 3.75Zm0-7.61c1.453 0 2.36 1.032 2.36 2.696v1.04c0 1.671-.907 2.695-2.36 2.695-1.453 0-2.36-1.024-2.36-2.696v-1.039c0-1.664.907-2.695 2.36-2.695Zm11.008-3.101c.625 0 1.102-.468 1.102-1.093 0-.618-.477-1.086-1.102-1.086-.625 0-1.101.468-1.101 1.086 0 .625.476 1.093 1.101 1.093Zm.766 2.078h-5.18v1.102h3.875v7.172c0 1.21-.476 1.586-2.055 1.586-.515 0-1.609-.024-2.015-.063v1.188a29.62 29.62 0 0 0 2.054.062c2.36 0 3.32-.742 3.32-2.617v-8.43Zm10.297 6.29c-.235.742-1.024 1.195-2.094 1.195-1.445 0-2.367-1-2.367-2.555v-.344h5.773v-.828c0-2.453-1.297-3.914-3.5-3.914-2.156 0-3.586 1.469-3.586 3.703v1.274c0 2.414 1.352 3.812 3.68 3.812 1.781 0 3.125-.945 3.383-2.343h-1.29Zm-2.196-5.305c1.367 0 2.196.976 2.196 2.594h-4.461c0-1.625.851-2.594 2.265-2.594Zm13.328 1.656c-.218-1.742-1.5-2.805-3.375-2.805-2.304 0-3.648 1.414-3.648 3.844v1.11c0 2.43 1.344 3.843 3.648 3.843 1.875 0 3.165-1.054 3.375-2.781h-1.312c-.164.969-.992 1.586-2.086 1.586-1.477 0-2.297-1-2.297-2.82v-.766c0-1.82.82-2.828 2.297-2.828 1.094 0 1.922.625 2.086 1.617h1.312Zm4.915-4.914v2.297h-2.258v1.133h2.257v4.797c0 1.765.977 2.562 3.079 2.562.406 0 1.437-.039 1.648-.078v-1.125a26.01 26.01 0 0 1-1.555.047c-1.195 0-1.843-.5-1.843-1.422v-4.781h3.421v-1.133h-3.437v-2.297h-1.313Zm21.257 7.484 2.133 3.266h1.54l-2.923-4.297 2.899-4.18h-1.492l-2.102 3.211h-.11l-2.109-3.21h-1.57l2.93 4.234-2.907 4.242h1.47l2.14-3.266zm9.86 3.313c.773 0 1.414-.649 1.414-1.445 0-.79-.64-1.438-1.414-1.438-.774 0-1.414.649-1.414 1.438 0 .796.64 1.445 1.414 1.445Zm9.922-3.313 2.132 3.266h1.54l-2.922-4.297 2.898-4.18h-1.492l-2.102 3.211h-.11l-2.109-3.21h-1.57l2.93 4.234-2.906 4.242h1.468l2.141-3.266zm13.39-2.57c-.219-1.742-1.5-2.805-3.375-2.805-2.304 0-3.648 1.414-3.648 3.844v1.11c0 2.43 1.343 3.843 3.648 3.843 1.875 0 3.164-1.054 3.375-2.781h-1.312c-.164.969-.993 1.586-2.086 1.586-1.477 0-2.297-1-2.297-2.82v-.766c0-1.82.82-2.828 2.297-2.828 1.093 0 1.922.625 2.086 1.617h1.312Zm6.36 5.992c2.242 0 3.671-1.46 3.671-3.75v-1.281c0-2.289-1.43-3.75-3.671-3.75-2.243 0-3.672 1.461-3.672 3.75v1.281c0 2.29 1.43 3.75 3.672 3.75Zm0-7.61c1.453 0 2.359 1.032 2.359 2.696v1.04c0 1.671-.906 2.695-2.36 2.695-1.453 0-2.359-1.024-2.359-2.696v-1.039c0-1.664.906-2.695 2.36-2.695Zm9.358 7.594c1.212 0 2.102-.5 2.54-1.437h.148V233h1.305v-11.805h-1.351v4.641h-.141c-.367-.93-1.274-1.453-2.5-1.453-1.961 0-3.242 1.414-3.242 3.586v1.578c0 2.18 1.281 3.594 3.242 3.594Zm.392-1.21c-1.399 0-2.297-1.008-2.297-2.57v-1.22c0-1.562.898-2.562 2.297-2.562 1.39 0 2.289 1 2.289 2.563v1.218c0 1.57-.899 2.57-2.29 2.57Zm12.32-1.117c-.235.742-1.024 1.195-2.094 1.195-1.445 0-2.367-1-2.367-2.555v-.344h5.773v-.828c0-2.453-1.296-3.914-3.5-3.914-2.156 0-3.586 1.469-3.586 3.703v1.274c0 2.414 1.352 3.812 3.68 3.812 1.781 0 3.125-.945 3.383-2.343h-1.29Zm-2.195-5.305c1.367 0 2.195.976 2.195 2.594h-4.461c0-1.625.851-2.594 2.266-2.594Zm10.328-1.125c-1.211 0-2.094.5-2.54 1.437h-.14v-1.297h-1.313v11.336h1.352v-4.171h.149c.367.93 1.265 1.453 2.492 1.453 1.96 0 3.242-1.414 3.242-3.586v-1.578c0-2.18-1.281-3.594-3.242-3.594Zm-.383 1.219c1.398 0 2.289 1 2.289 2.562v1.219c0 1.562-.89 2.57-2.29 2.57-1.398 0-2.288-1-2.288-2.57v-1.219c0-1.562.89-2.562 2.289-2.562Zm9.406 3.601c0-2.156 1.11-3.453 2.985-3.453.46 0 1.007.094 1.398.234v-1.492c-.281-.117-.742-.187-1.227-.187-1.632 0-2.687.812-3 2.383h-.171v-2.165h-3.165v1.063h1.883v6.352h-1.71V233h5.632v-1.062h-2.625v-2.735Zm10.227 3.953c2.242 0 3.672-1.46 3.672-3.75v-1.281c0-2.289-1.43-3.75-3.672-3.75-2.243 0-3.672 1.461-3.672 3.75v1.281c0 2.29 1.43 3.75 3.672 3.75Zm0-7.61c1.453 0 2.36 1.032 2.36 2.696v1.04c0 1.671-.907 2.695-2.36 2.695-1.453 0-2.36-1.024-2.36-2.696v-1.039c0-1.664.907-2.695 2.36-2.695Zm11.008-3.101c.624 0 1.101-.468 1.101-1.093 0-.618-.476-1.086-1.101-1.086-.626 0-1.102.468-1.102 1.086 0 .625.476 1.093 1.101 1.093Zm.765 2.078h-5.18v1.102h3.875v7.172c0 1.21-.476 1.586-2.054 1.586-.516 0-1.61-.024-2.016-.063v1.188a29.62 29.62 0 0 0 2.055.062c2.36 0 3.32-.742 3.32-2.617v-8.43Zm22.032 4.094v-1.234h-8.266v1.234zm4.898 4.531c1.234 0 2.156-.507 2.562-1.414h.133v1.274h1.266v-5.805c0-1.765-1.14-2.781-3.133-2.781-1.734 0-3.047.93-3.203 2.289h1.304c.22-.727.907-1.14 1.883-1.14 1.18 0 1.828.585 1.828 1.648v.765l-2.328.118c-1.93.101-3.007.992-3.007 2.492 0 1.539 1.078 2.554 2.695 2.554Zm.383-1.164c-1.07 0-1.735-.546-1.735-1.437 0-.883.625-1.39 1.813-1.445l2.18-.102v1c0 1.133-.977 1.984-2.258 1.984Zm10.031-2.781c0-2.156 1.11-3.453 2.984-3.453.461 0 1.008.094 1.399.234v-1.492c-.282-.117-.743-.187-1.227-.187-1.633 0-2.687.812-3 2.383h-.172v-2.165h-3.164v1.063h1.883v6.352h-1.71V233h5.632v-1.062h-2.625v-2.735Zm13.758-2.039c-.22-1.742-1.5-2.805-3.375-2.805-2.305 0-3.649 1.414-3.649 3.844v1.11c0 2.43 1.344 3.843 3.649 3.843 1.875 0 3.164-1.054 3.375-2.781h-1.313c-.164.969-.992 1.586-2.086 1.586-1.476 0-2.297-1-2.297-2.82v-.766c0-1.82.82-2.828 2.297-2.828 1.094 0 1.922.625 2.086 1.617h1.313Zm2.883 5.836h1.328v-4.984c0-1.446.945-2.422 2.343-2.422 1.329 0 1.954.726 1.954 2.25V233h1.328v-5.492c0-2.024-1-3.133-2.844-3.133-1.297 0-2.274.594-2.719 1.648h-.11v-4.828h-1.28V233Zm-531.477 19.148c1.234 0 2.156-.507 2.562-1.414h.133v1.274h1.266v-5.805c0-1.765-1.14-2.781-3.133-2.781-1.734 0-3.047.93-3.203 2.289h1.305c.218-.727.906-1.14 1.882-1.14 1.18 0 1.829.585 1.829 1.648v.765l-2.329.118c-1.93.101-3.007.992-3.007 2.492 0 1.539 1.078 2.554 2.695 2.554Zm.383-1.164c-1.07 0-1.735-.546-1.735-1.437 0-.883.625-1.39 1.813-1.445l2.18-.102v1c0 1.133-.977 1.984-2.258 1.984Zm10.031-2.781c0-2.156 1.11-3.453 2.984-3.453.461 0 1.008.094 1.399.234v-1.492c-.281-.117-.742-.187-1.227-.187-1.633 0-2.687.812-3 2.383h-.172v-2.165h-3.164v1.063h1.883v6.352h-1.71V252h5.632v-1.062H694.5v-2.735Zm14.313-2.445c0-1.57-.618-2.39-1.797-2.39-.852 0-1.532.515-1.75 1.327h-.141c-.18-.836-.742-1.328-1.54-1.328-.796 0-1.405.5-1.616 1.352h-.14v-1.196h-1.188V252h1.195v-5.719c0-1.054.469-1.703 1.219-1.703.718 0 1.093.54 1.093 1.563V252h1.188v-5.719c0-1.054.453-1.703 1.195-1.703.711 0 1.086.54 1.086 1.57V252h1.196v-6.242Zm9.671 2.625c0-2.055-1.484-3.578-3.492-3.578-.719 0-1.531.336-1.867.789l-.117-.063c.054-.125.023-.093.367-.578l3.078-4.226h-1.586c-.078.117-2.422 3.398-2.523 3.57-1.078 1.57-1.524 2.766-1.524 4.086 0 2.242 1.602 3.851 3.82 3.851 2.235 0 3.844-1.617 3.844-3.851Zm-3.836 2.625c-1.414 0-2.492-1.11-2.492-2.555 0-1.453 1.078-2.562 2.492-2.562 1.422 0 2.5 1.109 2.5 2.562 0 1.445-1.078 2.555-2.5 2.555Zm11.18.992h1.258v-2.383h1.726v-1.21h-1.718v-3.204h-1.25v3.219h-3.696v-.102l3.774-7.593h-1.406l-3.828 7.773v1.117h5.14zm22.594-4.383v-1.234h-8.266v1.234zm2.672-1.804c0 1.203.758 1.976 2.289 2.328l1.258.289c1.078.242 1.492.601 1.492 1.273 0 .813-.735 1.336-1.89 1.336-1.095 0-1.845-.453-2.04-1.234h-1.351c.148 1.453 1.421 2.351 3.343 2.351 2.008 0 3.313-1.015 3.313-2.578 0-1.226-.75-1.945-2.399-2.32l-1.195-.274c-1.062-.234-1.5-.601-1.5-1.25 0-.773.695-1.273 1.774-1.273.992 0 1.703.453 1.859 1.195h1.281c-.156-1.414-1.351-2.297-3.117-2.297-1.867 0-3.117.985-3.117 2.454Zm16.508.351c-.22-1.742-1.5-2.805-3.375-2.805-2.305 0-3.649 1.414-3.649 3.844v1.11c0 2.43 1.344 3.843 3.649 3.843 1.875 0 3.164-1.054 3.375-2.781h-1.313c-.164.969-.992 1.586-2.086 1.586-1.476 0-2.297-1-2.297-2.82v-.766c0-1.82.82-2.828 2.297-2.828 1.094 0 1.922.625 2.086 1.617h1.313Zm2.882 5.836h1.328v-4.984c0-1.446.946-2.422 2.344-2.422 1.328 0 1.953.726 1.953 2.25V252h1.328v-5.492c0-2.024-1-3.133-2.843-3.133-1.297 0-2.274.594-2.719 1.648h-.11v-4.828h-1.28V252Zm15.656-2.187c-.234.742-1.023 1.195-2.093 1.195-1.445 0-2.367-1-2.367-2.555v-.344h5.773v-.828c0-2.453-1.297-3.914-3.5-3.914-2.156 0-3.586 1.469-3.586 3.703v1.274c0 2.414 1.352 3.812 3.68 3.812 1.781 0 3.125-.945 3.383-2.343h-1.29Zm-2.195-5.305c1.367 0 2.196.976 2.196 2.594h-4.461c0-1.625.851-2.594 2.265-2.594Zm13.883 1.25c0-1.57-.617-2.39-1.797-2.39-.851 0-1.531.515-1.75 1.327h-.14c-.18-.836-.743-1.328-1.54-1.328-.796 0-1.406.5-1.617 1.352h-.14v-1.196h-1.188V252h1.196v-5.719c0-1.054.468-1.703 1.218-1.703.72 0 1.094.54 1.094 1.563V252h1.188v-5.719c0-1.054.453-1.703 1.195-1.703.71 0 1.086.54 1.086 1.57V252h1.195v-6.242Zm8.094 4.055c-.235.742-1.024 1.195-2.094 1.195-1.445 0-2.367-1-2.367-2.555v-.344h5.773v-.828c0-2.453-1.297-3.914-3.5-3.914-2.156 0-3.586 1.469-3.586 3.703v1.274c0 2.414 1.352 3.812 3.68 3.812 1.781 0 3.125-.945 3.383-2.343h-1.29Zm-2.195-5.305c1.367 0 2.195.976 2.195 2.594h-4.461c0-1.625.851-2.594 2.266-2.594Zm19.718 4.226 2.133 3.266h1.54l-2.923-4.297 2.899-4.18h-1.492l-2.102 3.211h-.11l-2.109-3.21h-1.57l2.93 4.234-2.907 4.242h1.47l2.14-3.266zm23.883-1.117v-1.234h-8.265v1.234zm9.289-1.453c-.219-1.742-1.5-2.805-3.375-2.805-2.304 0-3.648 1.414-3.648 3.844v1.11c0 2.43 1.343 3.843 3.648 3.843 1.875 0 3.164-1.054 3.375-2.781h-1.312c-.164.969-.992 1.586-2.086 1.586-1.477 0-2.297-1-2.297-2.82v-.766c0-1.82.82-2.828 2.297-2.828 1.093 0 1.922.625 2.086 1.617h1.312Zm6.36 5.992c2.242 0 3.671-1.46 3.671-3.75v-1.281c0-2.289-1.43-3.75-3.671-3.75-2.243 0-3.672 1.461-3.672 3.75v1.281c0 2.29 1.43 3.75 3.672 3.75Zm0-7.61c1.453 0 2.359 1.032 2.359 2.696v1.04c0 1.671-.906 2.695-2.36 2.695-1.453 0-2.359-1.024-2.359-2.696v-1.039c0-1.664.906-2.695 2.36-2.695Zm6.421 7.454h1.329v-4.992c0-1.445.937-2.422 2.336-2.422 1.32 0 1.945.719 1.945 2.25V252h1.328v-5.5c0-2.031-1-3.133-2.844-3.133-1.289 0-2.258.594-2.71 1.649h-.11v-1.493h-1.274V252Zm12.11 0h1.328v-7.32h3.726v-1.133h-3.742v-.875c0-.852.625-1.29 1.805-1.29.477 0 1.57.032 1.938.071v-1.086c-.282-.039-1.461-.078-1.954-.078-2.086 0-3.101.766-3.101 2.406v.852h-2.274v1.133h2.274V252Zm11.289-10.555c.625 0 1.101-.468 1.101-1.093 0-.618-.476-1.086-1.101-1.086s-1.102.468-1.102 1.086c0 .625.477 1.093 1.102 1.093ZM896.352 252v-1.102h-2.805v-7.375h-4.195v1.102h2.882v6.273h-2.906V252h7.024Zm5.938 3.18c2.296 0 3.655-1.188 3.655-3.18v-8.477h-1.312v1.313h-.149c-.367-.914-1.297-1.453-2.523-1.453-1.984 0-3.281 1.406-3.281 3.586v1.523c0 2.172 1.289 3.586 3.25 3.586 1.234 0 2.172-.539 2.547-1.43h.14v1.32c0 1.36-.82 2.11-2.304 2.11-1.133 0-1.985-.46-2.157-1.164h-1.312c.172 1.406 1.484 2.266 3.445 2.266Zm-2.274-6.875v-1.164c0-1.555.906-2.563 2.312-2.563 1.399 0 2.297 1 2.297 2.563v1.164c0 1.562-.898 2.57-2.297 2.57-1.406 0-2.312-1.016-2.312-2.57Zm15.882-4.782h-1.328v4.993c0 1.445-.937 2.422-2.336 2.422-1.32 0-1.945-.72-1.945-2.25v-5.165h-1.328v5.5c0 2.032 1 3.133 2.844 3.133 1.289 0 2.258-.593 2.71-1.648h.11V252h1.273v-8.477Zm6.086 4.68c0-2.156 1.11-3.453 2.985-3.453.46 0 1.008.094 1.398.234v-1.492c-.281-.117-.742-.187-1.226-.187-1.633 0-2.688.812-3 2.383h-.172v-2.165h-3.164v1.063h1.883v6.352h-1.711V252h5.632v-1.062h-2.625v-2.735Zm9.368 3.945c1.234 0 2.156-.507 2.562-1.414h.133v1.274h1.265v-5.805c0-1.765-1.14-2.781-3.132-2.781-1.735 0-3.047.93-3.203 2.289h1.304c.219-.727.907-1.14 1.883-1.14 1.18 0 1.828.585 1.828 1.648v.765l-2.328.118c-1.93.101-3.008.992-3.008 2.492 0 1.539 1.078 2.554 2.696 2.554Zm.382-1.164c-1.07 0-1.734-.546-1.734-1.437 0-.883.625-1.39 1.813-1.445l2.18-.102v1c0 1.133-.977 1.984-2.259 1.984Zm8.922-9.734v2.297h-2.258v1.133h2.258v4.797c0 1.765.977 2.562 3.078 2.562.407 0 1.438-.039 1.649-.078v-1.125c-.227.023-1.078.047-1.555.047-1.195 0-1.844-.5-1.844-1.422v-4.781h3.422v-1.133h-3.437v-2.297h-1.313Zm11.484.195c.626 0 1.102-.468 1.102-1.093 0-.618-.476-1.086-1.101-1.086s-1.102.468-1.102 1.086c0 .625.477 1.093 1.102 1.093ZM955.696 252v-1.102h-2.804v-7.375h-4.196v1.102h2.883v6.273h-2.906V252h7.023Zm6.187.156c2.242 0 3.672-1.46 3.672-3.75v-1.281c0-2.289-1.43-3.75-3.672-3.75s-3.672 1.461-3.672 3.75v1.281c0 2.29 1.43 3.75 3.672 3.75Zm0-7.61c1.453 0 2.36 1.032 2.36 2.696v1.04c0 1.671-.907 2.695-2.36 2.695-1.453 0-2.36-1.024-2.36-2.696v-1.039c0-1.664.907-2.695 2.36-2.695Zm6.422 7.454h1.328v-4.992c0-1.445.937-2.422 2.336-2.422 1.32 0 1.945.719 1.945 2.25V252h1.328v-5.5c0-2.031-1-3.133-2.844-3.133-1.289 0-2.257.594-2.71 1.649h-.11v-1.493h-1.273V252Zm23.679-4.492 2.102 4.492h1.555l-2.297-4.773c1.281-.422 2.101-1.633 2.101-3.11 0-2.094-1.398-3.39-3.633-3.39h-3.78V252h1.359v-4.492h2.593Zm-2.593-5.555h2.297c1.507 0 2.367.797 2.367 2.195 0 1.407-.875 2.196-2.43 2.196h-2.234v-4.39Zm14.343 7.86c-.234.742-1.023 1.195-2.093 1.195-1.446 0-2.368-1-2.368-2.555v-.344h5.774v-.828c0-2.453-1.297-3.914-3.5-3.914-2.156 0-3.586 1.469-3.586 3.703v1.274c0 2.414 1.351 3.812 3.68 3.812 1.78 0 3.125-.945 3.382-2.343h-1.289Zm-2.195-5.305c1.367 0 2.195.976 2.195 2.594h-4.46c0-1.625.851-2.594 2.265-2.594ZM1015.04 252v-1.102h-2.798v-10.703h-4.203v1.102h2.875v9.601h-2.898V252zm8.476-2.187c-.235.742-1.024 1.195-2.094 1.195-1.445 0-2.367-1-2.367-2.555v-.344h5.773v-.828c0-2.453-1.297-3.914-3.5-3.914-2.156 0-3.586 1.469-3.586 3.703v1.274c0 2.414 1.352 3.812 3.68 3.812 1.781 0 3.125-.945 3.383-2.343h-1.29Zm-2.196-5.305c1.367 0 2.196.976 2.196 2.594h-4.461c0-1.625.851-2.594 2.265-2.594Zm8.938 7.64c1.234 0 2.156-.507 2.562-1.414h.133v1.274h1.266v-5.805c0-1.765-1.14-2.781-3.133-2.781-1.734 0-3.047.93-3.203 2.289h1.304c.22-.727.907-1.14 1.883-1.14 1.18 0 1.828.585 1.828 1.648v.765l-2.328.118c-1.93.101-3.007.992-3.007 2.492 0 1.539 1.078 2.554 2.695 2.554Zm.383-1.164c-1.07 0-1.735-.546-1.735-1.437 0-.883.625-1.39 1.813-1.445l2.18-.102v1c0 1.133-.977 1.984-2.258 1.984Zm7.281-5.171c0 1.203.758 1.976 2.289 2.328l1.258.289c1.078.242 1.492.601 1.492 1.273 0 .813-.734 1.336-1.89 1.336-1.094 0-1.844-.453-2.04-1.234h-1.351c.148 1.453 1.422 2.351 3.343 2.351 2.008 0 3.313-1.015 3.313-2.578 0-1.226-.75-1.945-2.399-2.32l-1.195-.274c-1.062-.234-1.5-.601-1.5-1.25 0-.773.696-1.273 1.774-1.273.992 0 1.703.453 1.859 1.195h1.281c-.156-1.414-1.351-2.297-3.117-2.297-1.867 0-3.117.985-3.117 2.454Zm15.266 4c-.235.742-1.024 1.195-2.094 1.195-1.446 0-2.367-1-2.367-2.555v-.344h5.773v-.828c0-2.453-1.297-3.914-3.5-3.914-2.156 0-3.586 1.469-3.586 3.703v1.274c0 2.414 1.352 3.812 3.68 3.812 1.781 0 3.125-.945 3.383-2.343h-1.29Zm-2.196-5.305c1.367 0 2.196.976 2.196 2.594h-4.461c0-1.625.851-2.594 2.265-2.594Zm-361.914 22.109v-1.234h-8.265v1.234zm5.227 4.523c1.21 0 2.101-.5 2.539-1.437h.148V271h1.305v-11.805h-1.352v4.641h-.14c-.367-.93-1.274-1.453-2.5-1.453-1.961 0-3.242 1.414-3.242 3.586v1.578c0 2.18 1.28 3.594 3.242 3.594Zm.39-1.21c-1.398 0-2.297-1.008-2.297-2.57v-1.22c0-1.562.899-2.562 2.297-2.562 1.39 0 2.29 1 2.29 2.563v1.218c0 1.57-.9 2.57-2.29 2.57Zm12.321-1.117c-.235.742-1.024 1.195-2.094 1.195-1.445 0-2.367-1-2.367-2.555v-.344h5.773v-.828c0-2.453-1.297-3.914-3.5-3.914-2.156 0-3.586 1.469-3.586 3.703v1.274c0 2.414 1.352 3.812 3.68 3.812 1.781 0 3.125-.945 3.383-2.343h-1.29Zm-2.196-5.305c1.367 0 2.196.976 2.196 2.594h-4.461c0-1.625.851-2.594 2.265-2.594Zm9.461 3.695c0-2.156 1.11-3.453 2.985-3.453.46 0 1.007.094 1.398.234v-1.492c-.281-.117-.742-.187-1.226-.187-1.633 0-2.688.812-3 2.383h-.172v-2.165h-3.164v1.063h1.882v6.352h-1.71V271h5.632v-1.062h-2.625v-2.735Zm10.375-6.758c.625 0 1.102-.468 1.102-1.093 0-.618-.477-1.086-1.102-1.086-.625 0-1.101.468-1.101 1.086 0 .625.476 1.093 1.101 1.093ZM728.211 271v-1.102h-2.805v-7.375h-4.195v1.102h2.883v6.273h-2.907V271h7.024Zm2.359-8.477 3.102 8.477h1.46l3.095-8.477h-1.414l-2.352 7.055h-.102l-2.367-7.055zm16.008 6.29c-.234.742-1.023 1.195-2.094 1.195-1.445 0-2.367-1-2.367-2.555v-.344h5.774v-.828c0-2.453-1.297-3.914-3.5-3.914-2.157 0-3.586 1.469-3.586 3.703v1.274c0 2.414 1.351 3.812 3.68 3.812 1.78 0 3.124-.945 3.382-2.343h-1.289Zm-2.195-5.305c1.367 0 2.195.976 2.195 2.594h-4.46c0-1.625.85-2.594 2.265-2.594Zm9.265 7.632c1.211 0 2.102-.5 2.54-1.437h.148V271h1.305v-11.805h-1.352v4.641h-.14c-.368-.93-1.274-1.453-2.5-1.453-1.962 0-3.243 1.414-3.243 3.586v1.578c0 2.18 1.282 3.594 3.242 3.594Zm.391-1.21c-1.398 0-2.297-1.008-2.297-2.57v-1.22c0-1.562.899-2.562 2.297-2.562 1.39 0 2.29 1 2.29 2.563v1.218c0 1.57-.9 2.57-2.29 2.57Zm6.336-10.203V271h3.156c3.196 0 4.805-1.89 4.805-5.656 0-3.735-1.61-5.617-4.805-5.617h-3.156Zm1.383 1.265h1.648c2.383 0 3.524 1.406 3.524 4.36 0 2.984-1.133 4.382-3.524 4.382h-1.648v-8.742Zm11.344 10.156c1.234 0 2.156-.507 2.562-1.414h.133v1.274h1.265v-5.805c0-1.765-1.14-2.781-3.132-2.781-1.735 0-3.047.93-3.203 2.289h1.304c.219-.727.907-1.14 1.883-1.14 1.18 0 1.828.585 1.828 1.648v.765l-2.328.118c-1.93.101-3.008.992-3.008 2.492 0 1.539 1.078 2.554 2.696 2.554Zm.382-1.164c-1.07 0-1.734-.546-1.734-1.437 0-.883.625-1.39 1.813-1.445l2.18-.102v1c0 1.133-.977 1.984-2.259 1.984Zm8.922-9.734v2.297h-2.258v1.133h2.258v4.797c0 1.765.977 2.562 3.078 2.562.407 0 1.438-.039 1.649-.078v-1.125c-.227.023-1.078.047-1.555.047-1.195 0-1.844-.5-1.844-1.422v-4.781h3.422v-1.133h-3.437v-2.297h-1.313Zm10.477 10.898c1.234 0 2.156-.507 2.562-1.414h.133v1.274h1.266v-5.805c0-1.765-1.14-2.781-3.133-2.781-1.734 0-3.047.93-3.203 2.289h1.304c.22-.727.907-1.14 1.883-1.14 1.18 0 1.828.585 1.828 1.648v.765l-2.328.118c-1.93.101-3.008.992-3.008 2.492 0 1.539 1.079 2.554 2.696 2.554Zm.383-1.164c-1.07 0-1.735-.546-1.735-1.437 0-.883.625-1.39 1.813-1.445l2.18-.102v1c0 1.133-.977 1.984-2.258 1.984Zm6.968-10.257V271h1.383v-4.047h2.336c2.203 0 3.649-1.43 3.649-3.61 0-2.187-1.43-3.616-3.618-3.616h-3.75Zm1.383 1.226h2.024c1.64 0 2.562.852 2.562 2.39 0 1.532-.922 2.384-2.562 2.384h-2.024v-4.774Zm11.047 10.195c1.234 0 2.156-.507 2.563-1.414h.132v1.274h1.266v-5.805c0-1.765-1.14-2.781-3.133-2.781-1.734 0-3.047.93-3.203 2.289h1.305c.218-.727.906-1.14 1.883-1.14 1.18 0 1.828.585 1.828 1.648v.765l-2.328.118c-1.93.101-3.008.992-3.008 2.492 0 1.539 1.078 2.554 2.695 2.554Zm.383-1.164c-1.07 0-1.735-.546-1.735-1.437 0-.883.625-1.39 1.813-1.445l2.18-.102v1c0 1.133-.977 1.984-2.258 1.984Zm8.922-9.734v2.297h-2.258v1.133h2.258v4.797c0 1.765.976 2.562 3.078 2.562.406 0 1.437-.039 1.648-.078v-1.125a26 26 0 0 1-1.554.047c-1.196 0-1.844-.5-1.844-1.422v-4.781h3.422v-1.133h-3.438v-2.297h-1.312Zm7.859 10.75h1.328v-4.984c0-1.446.946-2.422 2.344-2.422 1.328 0 1.953.726 1.953 2.25V271h1.328v-5.492c0-2.024-1-3.133-2.843-3.133-1.297 0-2.274.594-2.72 1.648h-.109v-4.828h-1.28V271Zm23.258.047c.773 0 1.414-.649 1.414-1.445 0-.79-.64-1.438-1.414-1.438-.774 0-1.414.649-1.414 1.438 0 .796.64 1.445 1.414 1.445Zm7.789 1.023 5.5-13.414h-1.305l-5.492 13.414zm12.023-4.336 2.133 3.266h1.54l-2.923-4.297 2.899-4.18h-1.492l-2.102 3.211h-.11l-2.109-3.21h-1.57l2.93 4.234-2.907 4.242h1.47l2.14-3.266zm13.392-2.57c-.22-1.742-1.5-2.805-3.376-2.805-2.305 0-3.648 1.414-3.648 3.844v1.11c0 2.43 1.343 3.843 3.648 3.843 1.875 0 3.164-1.054 3.375-2.781h-1.312c-.164.969-.993 1.586-2.086 1.586-1.477 0-2.297-1-2.297-2.82v-.766c0-1.82.82-2.828 2.297-2.828 1.093 0 1.922.625 2.086 1.617h1.312Zm6.358 5.992c2.243 0 3.672-1.46 3.672-3.75v-1.281c0-2.289-1.43-3.75-3.672-3.75s-3.671 1.461-3.671 3.75v1.281c0 2.29 1.43 3.75 3.671 3.75Zm0-7.61c1.454 0 2.36 1.032 2.36 2.696v1.04c0 1.671-.906 2.695-2.36 2.695-1.453 0-2.359-1.024-2.359-2.696v-1.039c0-1.664.906-2.695 2.36-2.695Zm9.36 7.594c1.21 0 2.101-.5 2.539-1.437h.148V271H906v-11.805h-1.352v4.641h-.14c-.367-.93-1.274-1.453-2.5-1.453-1.961 0-3.242 1.414-3.242 3.586v1.578c0 2.18 1.28 3.594 3.242 3.594Zm.39-1.21c-1.398 0-2.296-1.008-2.296-2.57v-1.22c0-1.562.898-2.562 2.296-2.562 1.391 0 2.29 1 2.29 2.563v1.218c0 1.57-.899 2.57-2.29 2.57Zm12.321-1.117c-.235.742-1.024 1.195-2.094 1.195-1.445 0-2.367-1-2.367-2.555v-.344h5.773v-.828c0-2.453-1.297-3.914-3.5-3.914-2.156 0-3.586 1.469-3.586 3.703v1.274c0 2.414 1.352 3.812 3.68 3.812 1.781 0 3.125-.945 3.383-2.343h-1.29Zm-2.196-5.305c1.368 0 2.196.976 2.196 2.594h-4.461c0-1.625.851-2.594 2.265-2.594Zm-224.898 23.039c0 1.476-.953 2.383-2.492 2.383-1.82 0-2.774-1.227-2.774-3.563v-2.008c0-2.336.946-3.562 2.766-3.562 1.438 0 2.438.992 2.5 2.46h1.39c-.054-2.335-1.523-3.765-3.867-3.765-2.648 0-4.18 1.781-4.18 4.867v2.008c0 3.086 1.532 4.867 4.18 4.867 2.274 0 3.868-1.453 3.868-3.57v-2.398h-3.993v1.18h2.602v1.1Zm7.469 2.383c-1.828 0-2.782-1.227-2.782-3.563v-2.008c0-2.336.954-3.562 2.774-3.562 1.445 0 2.453 1.023 2.5 2.547h1.398c-.047-2.406-1.515-3.852-3.89-3.852-2.649 0-4.188 1.79-4.188 4.867v2.008c0 3.078 1.54 4.867 4.188 4.867 2.304 0 3.883-1.476 3.883-3.656h-1.391c-.04 1.453-.992 2.352-2.492 2.352Zm9.89 0c-1.828 0-2.78-1.227-2.78-3.563v-2.008c0-2.336.952-3.562 2.773-3.562 1.445 0 2.453 1.023 2.5 2.547h1.398c-.047-2.406-1.516-3.852-3.89-3.852-2.65 0-4.188 1.79-4.188 4.867v2.008c0 3.078 1.539 4.867 4.187 4.867 2.305 0 3.883-1.476 3.883-3.656h-1.39c-.04 1.453-.993 2.352-2.493 2.352Zm13.688 3.508v-1.149h-8.11v1.149zm2.438-13.711V290h1.382v-4.047h2.336c2.203 0 3.649-1.43 3.649-3.61 0-2.187-1.43-3.616-3.618-3.616h-3.75Zm1.382 1.226h2.024c1.64 0 2.562.852 2.562 2.39 0 1.532-.922 2.384-2.562 2.384h-2.024v-4.774Zm12.336 5.555L736.93 290h1.554l-2.297-4.773c1.282-.422 2.102-1.633 2.102-3.11 0-2.094-1.398-3.39-3.633-3.39h-3.781V290h1.36v-4.492h2.593Zm-2.594-5.555h2.297c1.508 0 2.367.797 2.367 2.195 0 1.407-.875 2.196-2.43 2.196h-2.234v-4.39Zm15.563 8.781h-5.274v-3.875h4.985v-1.21h-4.985v-3.657h5.274v-1.265h-6.656V290h6.656zm2.984-10.007V290h1.383v-4.047h2.336c2.203 0 3.648-1.43 3.648-3.61 0-2.187-1.43-3.616-3.617-3.616h-3.75Zm1.383 1.226h2.024c1.64 0 2.562.852 2.562 2.39 0 1.532-.922 2.384-2.563 2.384h-2.023v-4.774Zm12.336 5.555 2.102 4.492h1.554l-2.297-4.773c1.282-.422 2.102-1.633 2.102-3.11 0-2.094-1.399-3.39-3.633-3.39h-3.781V290h1.36v-4.492h2.593Zm-2.594-5.555h2.297c1.508 0 2.367.797 2.367 2.195 0 1.407-.875 2.196-2.43 2.196h-2.234v-4.39Zm16.188 5.32v-1.82c0-3.117-1.57-4.96-4.133-4.96-2.563 0-4.133 1.843-4.133 4.96v1.82c0 3.118 1.57 4.961 4.133 4.961 2.562 0 4.133-1.843 4.133-4.96Zm-4.133 3.657c-1.711 0-2.742-1.313-2.742-3.664v-1.805c0-2.352 1.031-3.664 2.742-3.664 1.71 0 2.742 1.312 2.742 3.664v1.805c0 2.351-1.031 3.664-2.742 3.664Zm10.149 0c-1.829 0-2.782-1.227-2.782-3.563v-2.008c0-2.336.953-3.562 2.774-3.562 1.445 0 2.453 1.023 2.5 2.547H788c-.047-2.406-1.516-3.852-3.89-3.852-2.65 0-4.188 1.79-4.188 4.867v2.008c0 3.078 1.539 4.867 4.187 4.867 2.305 0 3.883-1.476 3.883-3.656h-1.39c-.04 1.453-.993 2.352-2.493 2.352Zm13.14-.196h-5.273v-3.875h4.984v-1.21h-4.984v-3.657h5.273v-1.265h-6.656V290h6.656zm2.523-1.734c.118 2 1.641 3.234 3.97 3.234 2.359 0 3.882-1.289 3.882-3.312 0-1.695-.922-2.649-3.11-3.188l-.984-.25c-1.468-.367-2.093-.93-2.093-1.906 0-1.148.867-1.836 2.312-1.836 1.328 0 2.188.688 2.328 1.852h1.344c-.094-1.875-1.555-3.102-3.68-3.102-2.25 0-3.695 1.242-3.695 3.164 0 1.633.945 2.625 3.039 3.157l.969.242c1.523.375 2.18.96 2.18 1.937 0 1.211-.985 1.992-2.485 1.992s-2.492-.75-2.633-1.984h-1.344Zm9.891 0c.117 2 1.64 3.234 3.969 3.234 2.36 0 3.883-1.289 3.883-3.312 0-1.695-.922-2.649-3.11-3.188l-.984-.25c-1.469-.367-2.094-.93-2.094-1.906 0-1.148.867-1.836 2.313-1.836 1.328 0 2.187.688 2.328 1.852h1.343c-.093-1.875-1.554-3.102-3.68-3.102-2.25 0-3.694 1.242-3.694 3.164 0 1.633.945 2.625 3.039 3.157l.968.242c1.524.375 2.18.96 2.18 1.937 0 1.211-.984 1.992-2.484 1.992s-2.493-.75-2.633-1.984h-1.344Zm17.883-1.727v-1.82c0-3.117-1.57-4.96-4.133-4.96-2.562 0-4.133 1.843-4.133 4.96v1.82c0 3.118 1.57 4.961 4.133 4.961 2.563 0 4.133-1.843 4.133-4.96Zm-4.133 3.657c-1.71 0-2.742-1.313-2.742-3.664v-1.805c0-2.352 1.031-3.664 2.742-3.664s2.742 1.312 2.742 3.664v1.805c0 2.351-1.031 3.664-2.742 3.664Zm10.32-3.422 2.102 4.492h1.555l-2.297-4.773c1.281-.422 2.101-1.633 2.101-3.11 0-2.094-1.398-3.39-3.633-3.39h-3.78V290h1.359v-4.492h2.593Zm-2.593-5.555h2.297c1.507 0 2.367.797 2.367 2.195 0 1.407-.875 2.196-2.43 2.196h-2.234v-4.39Zm16.109 12.485v-1.149h-8.11v1.149zm2.14-13.711V290h3.157c3.195 0 4.805-1.89 4.805-5.656 0-3.735-1.61-5.617-4.805-5.617h-3.156Zm1.383 1.265h1.649c2.383 0 3.523 1.406 3.523 4.36 0 2.984-1.133 4.382-3.523 4.382h-1.649v-8.742Zm15.711 8.742h-5.273v-3.875h4.984v-1.21h-4.984v-3.657h5.273v-1.265h-6.656V290h6.656zM871.29 290v-4.914h4.812v-1.227h-4.813v-3.867h5.266v-1.265h-6.649V290zm14.437 0v-1.227h-2.282v-8.82h2.282v-1.226h-5.938v1.226h2.281v8.82h-2.28V290zm4.413 0v-8.797h.11l4.844 8.797h1.304v-11.273h-1.242v8.773h-.11l-4.827-8.773h-1.32V290zm15.368 0v-1.227h-2.281v-8.82h2.28v-1.226h-5.937v1.226h2.282v8.82h-2.282V290zm7.609 0v-10.008h3.406v-1.265h-8.187v1.265h3.406V290zm12.173 0v-1.227h-2.282v-8.82h2.281v-1.226h-5.937v1.226h2.28v8.82h-2.28V290zm11.054-4.727v-1.82c0-3.117-1.57-4.96-4.133-4.96-2.563 0-4.133 1.843-4.133 4.96v1.82c0 3.118 1.57 4.961 4.133 4.961 2.562 0 4.133-1.843 4.133-4.96Zm-4.133 3.657c-1.711 0-2.742-1.313-2.742-3.664v-1.805c0-2.352 1.031-3.664 2.742-3.664 1.71 0 2.742 1.312 2.742 3.664v1.805c0 2.351-1.031 3.664-2.742 3.664Zm7.383 1.07v-8.797h.11l4.843 8.797h1.305v-11.273h-1.243v8.773h-.109l-4.828-8.773h-1.32V290zm8.539-3c.117 2 1.64 3.234 3.969 3.234 2.359 0 3.882-1.289 3.882-3.312 0-1.695-.922-2.649-3.109-3.188l-.984-.25c-1.47-.367-2.094-.93-2.094-1.906 0-1.148.867-1.836 2.312-1.836 1.328 0 2.188.688 2.328 1.852h1.344c-.093-1.875-1.554-3.102-3.68-3.102-2.25 0-3.695 1.242-3.695 3.164 0 1.633.946 2.625 3.04 3.157l.968.242c1.524.375 2.18.96 2.18 1.937 0 1.211-.985 1.992-2.485 1.992s-2.492-.75-2.632-1.984h-1.344Zm17.883-3.133v-1.289h-8.266v1.29h8.266Zm0 3.563v-1.29h-8.266v1.29h8.266Zm4.944-3.672v-5.031h-1.429v5.03h1.43Zm3.056 0v-5.031h-1.438v5.03h1.438Zm7.859 6.242c2.422 0 3.86-1.172 3.86-3.148 0-1.508-.993-2.61-2.508-2.758v-.117c1.132-.196 1.937-1.22 1.937-2.461 0-1.75-1.25-2.79-3.328-2.79h-3.649V290h3.688Zm-2.32-10.086h1.968c1.438 0 2.25.664 2.25 1.844 0 1.187-.859 1.836-2.46 1.836h-1.758v-3.68Zm0 8.89v-4.062h1.976c1.828 0 2.774.688 2.774 2.016 0 1.344-.938 2.047-2.727 2.047h-2.023Zm12 .126c-1.64 0-2.594-1.078-2.594-2.93v-7.273h-1.375v7.359c0 2.594 1.484 4.148 3.969 4.148 2.484 0 3.968-1.554 3.968-4.148v-7.36h-1.375V286c0 1.852-.953 2.93-2.593 2.93Zm12.859 1.07v-1.227h-2.281v-8.82h2.281v-1.226h-5.937v1.226h2.28v8.82h-2.28V290zm10.742-1.281h-5.343v-9.992h-1.368V290h6.711zm2.375-9.992V290h3.157c3.195 0 4.804-1.89 4.804-5.656 0-3.735-1.61-5.617-4.804-5.617h-3.157Zm1.383 1.265h1.649c2.382 0 3.523 1.406 3.523 4.36 0 2.984-1.133 4.382-3.524 4.382h-1.648v-8.742Zm16.258 12.446v-1.149h-8.11v1.149zM1038.5 290v-8.797h.11l4.843 8.797h1.305v-11.273h-1.242v8.773h-.11l-4.828-8.773h-1.32V290zm12.398-1.07c-1.64 0-2.593-1.078-2.593-2.93v-7.273h-1.375v7.359c0 2.594 1.484 4.148 3.968 4.148 2.485 0 3.97-1.554 3.97-4.148v-7.36h-1.376V286c0 1.852-.953 2.93-2.594 2.93Zm7.055-3.258-.07-4.563h.101l2.266 6.243h1.078l2.266-6.243h.101l-.07 4.563V290h1.227v-11.273h-1.547l-2.461 7h-.102l-2.476-7h-1.54V290h1.227zM1070.89 290c2.422 0 3.86-1.172 3.86-3.148 0-1.508-.992-2.61-2.508-2.758v-.117c1.133-.196 1.938-1.22 1.938-2.461 0-1.75-1.25-2.79-3.328-2.79h-3.649V290h3.688Zm-2.32-10.086h1.97c1.437 0 2.25.664 2.25 1.844 0 1.187-.86 1.836-2.462 1.836h-1.758v-3.68Zm0 8.89v-4.062h1.977c1.828 0 2.773.688 2.773 2.016 0 1.344-.937 2.047-2.726 2.047h-2.024Zm15.508-.07h-5.273v-3.875h4.984v-1.21h-4.984v-3.657h5.273v-1.265h-6.656V290h6.656zm6.812-3.226 2.102 4.492h1.555l-2.297-4.773c1.281-.422 2.102-1.633 2.102-3.11 0-2.094-1.399-3.39-3.633-3.39h-3.782V290h1.36v-4.492h2.594Zm-2.593-5.555h2.297c1.508 0 2.367.797 2.367 2.195 0 1.407-.875 2.196-2.43 2.196h-2.234v-4.39Zm16.187 3.914v-1.289h-8.265v1.29h8.265Zm0 3.563v-1.29h-8.265v1.29h8.265Zm7.86 3.64h1.297l-5.493-13.414h-1.304zM681.07 306.023c.117 1.852 1.461 3.055 3.532 3.211v.868h.93v-.875c2.085-.164 3.413-1.414 3.413-3.274 0-1.68-.914-2.61-3.156-3.164l-.258-.07v-4.055c1.11.156 1.852.852 1.985 1.899h1.234c-.094-1.72-1.352-2.891-3.219-3.063v-.875h-.93v.875c-1.984.156-3.25 1.352-3.25 3.117 0 1.625.962 2.602 3.087 3.125l.164.04v4.28c-1.282-.148-2.157-.914-2.282-2.039h-1.25Zm1.563-5.445c0-1.07.742-1.781 1.969-1.914v3.82c-1.414-.398-1.97-.937-1.97-1.906Zm5.039 5.438c0 1.109-.852 1.898-2.14 2.047v-4.047c1.507.39 2.14.984 2.14 2Zm7.375 2.984c2.422 0 3.86-1.172 3.86-3.148 0-1.508-.993-2.61-2.509-2.758v-.117c1.133-.196 1.938-1.22 1.938-2.461 0-1.75-1.25-2.79-3.328-2.79h-3.649V309h3.688Zm-2.32-10.086h1.968c1.438 0 2.25.664 2.25 1.844 0 1.187-.86 1.836-2.46 1.836h-1.758v-3.68Zm0 8.89v-4.062h1.976c1.828 0 2.774.688 2.774 2.016 0 1.344-.938 2.047-2.727 2.047h-2.023Zm12 .126c-1.641 0-2.594-1.078-2.594-2.93v-7.273h-1.375v7.359c0 2.594 1.484 4.148 3.969 4.148 2.484 0 3.968-1.554 3.968-4.148v-7.36h-1.375V305c0 1.852-.953 2.93-2.593 2.93Zm12.859 1.07v-1.227h-2.281v-8.82h2.28v-1.226h-5.937v1.226h2.282v8.82h-2.282V309zm10.742-1.281h-5.344v-9.992h-1.367V309h6.711zm2.375-9.992V309h3.156c3.196 0 4.805-1.89 4.805-5.656 0-3.735-1.61-5.617-4.805-5.617h-3.156Zm1.383 1.265h1.648c2.383 0 3.524 1.406 3.524 4.36 0 2.984-1.133 4.382-3.524 4.382h-1.648v-8.742ZM742.383 309v-3.836l1.172-1.39 3.797 5.226h1.71l-4.578-6.289 4.172-4.984h-1.61l-4.562 5.609h-.101v-5.61h-1.352V309zm14.765 0v-1.227h-2.28v-8.82h2.28v-1.226h-5.937v1.226h2.281v8.82h-2.281V309zm7.61 0v-10.008h3.406v-1.265h-8.187v1.265h3.406V309zm12.711-1.266h-5.274v-3.875h4.985v-1.21h-4.985v-3.657h5.274v-1.265h-6.657V309h6.657zm10.437 3.704v-1.149h-8.11v1.149zm6.047-2.438c2.422 0 3.86-1.172 3.86-3.148 0-1.508-.993-2.61-2.508-2.758v-.117c1.133-.196 1.937-1.22 1.937-2.461 0-1.75-1.25-2.79-3.328-2.79h-3.648V309h3.687Zm-2.32-10.086h1.969c1.437 0 2.25.664 2.25 1.844 0 1.187-.86 1.836-2.461 1.836h-1.758v-3.68Zm0 8.89v-4.062h1.976c1.828 0 2.774.688 2.774 2.016 0 1.344-.938 2.047-2.727 2.047h-2.023Zm12 .126c-1.64 0-2.594-1.078-2.594-2.93v-7.273h-1.375v7.359c0 2.594 1.484 4.148 3.969 4.148 2.484 0 3.969-1.554 3.969-4.148v-7.36h-1.375V305c0 1.852-.954 2.93-2.594 2.93Zm12.859 1.07v-1.227h-2.281v-8.82h2.281v-1.226h-5.937v1.226h2.28v8.82h-2.28V309zm10.742-1.281h-5.343v-9.992h-1.368V309h6.711zm2.376-9.992V309h3.156c3.195 0 4.804-1.89 4.804-5.656 0-3.735-1.61-5.617-4.804-5.617h-3.157Zm1.382 1.265h1.649c2.382 0 3.523 1.406 3.523 4.36 0 2.984-1.133 4.382-3.523 4.382h-1.649v-8.742Zm16.258 12.446v-1.149h-8.11v1.149zm3.328-2.438v-8.797h.11L855.53 309h1.305v-11.273h-1.242v8.773h-.11l-4.828-8.773h-1.32V309zm12.399-1.07c-1.641 0-2.594-1.078-2.594-2.93v-7.273h-1.375v7.359c0 2.594 1.484 4.148 3.969 4.148 2.484 0 3.968-1.554 3.968-4.148v-7.36h-1.375V305c0 1.852-.953 2.93-2.593 2.93Zm7.054-3.258-.07-4.563h.101l2.266 6.243h1.078l2.266-6.243h.101l-.07 4.563V309h1.227v-11.273h-1.547l-2.461 7h-.102l-2.476-7h-1.54V309h1.227zM882.969 309c2.422 0 3.86-1.172 3.86-3.148 0-1.508-.993-2.61-2.509-2.758v-.117c1.133-.196 1.938-1.22 1.938-2.461 0-1.75-1.25-2.79-3.328-2.79h-3.649V309h3.688Zm-2.32-10.086h1.968c1.438 0 2.25.664 2.25 1.844 0 1.187-.86 1.836-2.46 1.836h-1.759v-3.68Zm0 8.89v-4.062h1.976c1.828 0 2.773.688 2.773 2.016 0 1.344-.937 2.047-2.726 2.047h-2.024Zm15.507-.07h-5.273v-3.875h4.984v-1.21h-4.984v-3.657h5.273v-1.265H889.5V309h6.656zm6.813-3.226L905.07 309h1.555l-2.297-4.773c1.281-.422 2.102-1.633 2.102-3.11 0-2.094-1.399-3.39-3.633-3.39h-3.781V309h1.359v-4.492h2.594Zm-2.594-5.555h2.297c1.508 0 2.367.797 2.367 2.195 0 1.407-.875 2.196-2.43 2.196h-2.234v-4.39Zm11.242 3.805v-5.031h-1.43v5.03h1.43Zm3.055 0v-5.031h-1.438v5.03h1.438ZM59.218 54.77c-1.358 0-3.46-1.528-5.672-1.474-2.922.038-5.6 1.676-7.105 4.27-3.032 5.206-.782 12.896 2.175 17.127 1.451 2.06 3.163 4.378 5.431 4.305 2.177-.092 2.994-1.398 5.636-1.398 2.623 0 3.366 1.398 5.672 1.343 2.344-.037 3.832-2.097 5.265-4.176 1.655-2.392 2.343-4.71 2.38-4.838-.056-.019-4.557-1.73-4.612-6.88-.037-4.307 3.552-6.367 3.72-6.46-2.047-2.96-5.19-3.292-6.288-3.365-2.864-.221-5.263 1.544-6.602 1.544v.001Zm4.838-4.344c1.207-1.434 2.005-3.438 1.783-5.426-1.729.074-3.813 1.14-5.059 2.575-1.117 1.27-2.082 3.313-1.823 5.262 1.916.147 3.889-.975 5.097-2.41" fill="#FFF" fill-rule="nonzero"/></g></svg>
