<svg width="1280" height="128" xmlns="http://www.w3.org/2000/svg"><title>x</title><g fill="none" fill-rule="evenodd"><path d="M21.793 0h1236.414c7.578 0 10.326.789 13.096 2.27a15.447 15.447 0 0 1 6.426 6.427c1.482 2.77 2.271 5.518 2.271 13.096v84.414c0 7.578-.789 10.326-2.27 13.096a15.447 15.447 0 0 1-6.427 6.426c-2.77 1.482-5.518 2.271-13.096 2.271H21.793c-7.578 0-10.326-.789-13.096-2.27a15.447 15.447 0 0 1-6.426-6.427C.789 116.533 0 113.785 0 106.207V21.793c0-7.578.789-10.326 2.27-13.096A15.447 15.447 0 0 1 8.698 2.27C11.467.789 14.215 0 21.793 0Z" fill="#000"/><g fill-rule="nonzero"><path d="M48.457 62.201c0 2.865 1.793 4.694 5.344 5.485l2.883.632c2.197.475 3.005 1.125 3.005 2.391 0 1.494-1.406 2.478-3.638 2.478-2.18 0-3.639-.86-3.99-2.373H48c.281 3.48 3.27 5.573 7.98 5.573 4.834 0 7.91-2.409 7.91-6.153 0-2.882-1.704-4.517-5.554-5.343l-2.865-.616c-2.092-.457-2.971-1.16-2.971-2.39 0-1.442 1.354-2.39 3.41-2.39 1.986 0 3.375.896 3.656 2.337h3.868c-.264-3.463-3.059-5.502-7.471-5.502-4.553 0-7.506 2.285-7.506 5.871ZM69.85 76h4.078V64.838c0-2.918 1.828-4.852 4.605-4.852 2.654 0 3.938 1.494 3.938 4.57V76h4.095V63.555c0-4.623-2.285-7.155-6.486-7.155-2.848 0-5.027 1.336-5.994 3.674h-.264V49.316H69.85V76Zm30.603-13.148c1.969 0 3.586-1.653 3.586-3.674 0-2.022-1.617-3.657-3.586-3.657-1.969 0-3.586 1.635-3.586 3.657 0 2.021 1.617 3.674 3.586 3.674Zm0 13.394c1.969 0 3.586-1.67 3.586-3.674 0-2.021-1.617-3.656-3.586-3.656-1.969 0-3.586 1.635-3.586 3.656 0 2.004 1.617 3.674 3.586 3.674Z" fill="#4683FF"/><path fill="#FFF" d="M145.014 69.145 149.25 76h4.605l-6.363-9.756 6.328-9.492h-4.517l-4.114 6.82h-.263l-4.113-6.82h-4.747l6.346 9.668L136.12 76h4.395l4.236-6.855zm44.455 7.242c5.308 0 8.666-3.305 8.666-8.543v-2.936c0-5.238-3.358-8.543-8.666-8.543-5.309 0-8.666 3.305-8.666 8.543v2.936c0 5.238 3.357 8.543 8.666 8.543Zm0-16.63c2.847 0 4.623 2.057 4.623 5.38v2.478c0 3.322-1.776 5.38-4.623 5.38-2.848 0-4.623-2.058-4.623-5.38v-2.478c0-3.323 1.775-5.38 4.623-5.38Zm24.029 16.542c4.43 0 7.154-3.094 7.154-8.227v-3.427c0-5.116-2.724-8.227-7.154-8.227-2.777 0-4.746 1.248-5.467 3.48h-.351V49.316h-4.237V76h4.166v-3.164h.352c.791 2.25 2.742 3.463 5.537 3.463Zm-1.459-3.569c-2.742 0-4.465-1.88-4.465-4.904V64.82c0-3.04 1.723-4.922 4.465-4.922s4.465 1.899 4.465 4.922v3.006c0 3.024-1.723 4.904-4.465 4.904Zm24.258-20.25c1.74 0 2.97-1.142 2.97-2.794 0-1.653-1.23-2.795-2.97-2.795-1.758 0-2.988 1.142-2.988 2.795 0 1.652 1.23 2.794 2.988 2.794Zm2.25 4.272h-12.27v3.27h8.28v15.363c0 2.302-.985 3.129-3.868 3.129-.755 0-4.095-.036-4.693-.088v3.586c.826.052 3.973.088 4.834.088 5.555 0 7.717-1.811 7.717-6.592V56.752Zm26.121 6.416c-.457-4.412-3.357-6.856-8.068-6.856-5.502 0-8.614 3.217-8.614 8.93v2.215c0 5.73 3.112 8.93 8.614 8.93 4.693 0 7.629-2.426 8.068-6.733h-4.008c-.351 2.127-1.846 3.287-4.096 3.287-2.882 0-4.464-2.074-4.464-5.853V65.61c0-3.779 1.582-5.853 4.464-5.853 2.233 0 3.762 1.213 4.096 3.41h4.008Z"/></g><path d="M1218.218 56.77c-1.358 0-3.46-1.528-5.672-1.474-2.922.038-5.6 1.676-7.105 4.27-3.032 5.206-.782 12.896 2.175 17.127 1.451 2.06 3.163 4.378 5.431 4.305 2.177-.092 2.994-1.398 5.636-1.398 2.623 0 3.366 1.398 5.672 1.343 2.344-.037 3.832-2.097 5.265-4.176 1.655-2.392 2.343-4.71 2.38-4.838-.056-.019-4.557-1.73-4.612-6.88-.037-4.307 3.552-6.367 3.72-6.46-2.047-2.96-5.19-3.292-6.288-3.365-2.864-.221-5.263 1.544-6.602 1.544v.001Zm4.838-4.344c1.207-1.434 2.005-3.438 1.783-5.426-1.729.074-3.813 1.14-5.059 2.575-1.117 1.27-2.082 3.313-1.823 5.262 1.916.147 3.889-.975 5.097-2.41" fill="#FFF" fill-rule="nonzero"/></g></svg>
